<?xml version="1.0" standalone="no"?>
<!DOCTYPE svg PUBLIC "-//W3C//DTD SVG 20010904//EN"
 "http://www.w3.org/TR/2001/REC-SVG-20010904/DTD/svg10.dtd">
<svg version="1.0" xmlns="http://www.w3.org/2000/svg"
 width="640.000000pt" height="640.000000pt" viewBox="0 0 640.000000 640.000000"
 preserveAspectRatio="xMidYMid meet">
<metadata>
Created by potrace 1.11, written by Peter Selinger 2001-2013
</metadata>
<g transform="translate(0.000000,640.000000) scale(0.100000,-0.100000)"
fill="#000000" stroke="none">
<path d="M3015 6364 c-247 -19 -484 -60 -690 -119 -1074 -307 -1911 -1162
-2195 -2239 -147 -560 -138 -1173 27 -1716 157 -520 417 -955 798 -1335 521
-522 1173 -833 1920 -917 140 -16 507 -15 650 0 849 95 1595 496 2130 1147
368 448 593 958 688 1555 19 117 21 177 21 455 0 278 -2 338 -21 455 -87 551
-287 1030 -607 1454 -522 691 -1289 1133 -2156 1241 -122 15 -465 27 -565 19z
m442 -35 c270 -22 561 -85 811 -175 154 -55 470 -209 610 -298 751 -475 1269
-1246 1421 -2116 34 -196 44 -317 44 -545 0 -228 -10 -349 -44 -545 -142 -813
-605 -1540 -1289 -2027 -271 -192 -623 -360 -951 -453 -1366 -386 -2825 190
-3556 1405 -510 847 -591 1890 -218 2806 375 919 1173 1616 2130 1859 342 87
702 118 1042 89z"/>
<path d="M2981 6204 c0 -7 -10 -14 -22 -17 -26 -7 -23 -50 5 -55 26 -5 33 8
25 48 -3 19 -7 30 -8 24z m-1 -44 c0 -11 -4 -20 -9 -20 -14 0 -23 18 -16 30
10 17 25 11 25 -10z"/>
<path d="M3258 6205 c-6 -7 3 -65 11 -65 7 0 7 58 -1 65 -2 3 -7 3 -10 0z"/>
<path d="M3490 6199 c0 -5 4 -9 8 -9 4 0 7 -17 5 -37 l-3 -38 11 35 c6 19 15
38 21 41 5 4 -2 9 -16 11 -14 3 -26 1 -26 -3z"/>
<path d="M3063 6192 c-35 -3 -36 -6 -23 -37 8 -19 9 -19 9 3 1 12 6 22 11 22
6 0 10 -10 11 -22 l1 -23 6 23 c4 13 12 23 17 23 6 0 13 -10 17 -23 6 -22 6
-22 7 -2 1 29 -17 40 -56 36z"/>
<path d="M3134 6186 c-10 -25 3 -46 28 -45 22 2 22 2 2 6 -16 3 -20 9 -17 24
6 21 18 25 26 9 3 -6 4 -5 3 2 -4 19 -35 22 -42 4z"/>
<path d="M3203 6193 c-7 -2 -13 -17 -12 -31 l1 -27 7 24 c9 35 29 37 34 4 l5
-28 -2 29 c-1 30 -11 38 -33 29z"/>
<path d="M3300 6185 c-17 -20 -5 -45 20 -45 11 0 23 7 26 15 6 15 -11 45 -26
45 -4 0 -13 -7 -20 -15z m33 -10 c8 -18 -11 -31 -25 -17 -11 11 -3 32 12 32 4
0 10 -7 13 -15z"/>
<path d="M3547 6166 c-7 -43 0 -64 10 -28 7 28 20 28 26 0 4 -20 4 -19 6 5 1
17 -4 27 -13 27 -8 0 -16 8 -18 18 -2 9 -7 -1 -11 -22z"/>
<path d="M3361 6163 c1 -22 2 -23 6 -8 3 11 10 23 17 27 7 5 5 8 -6 8 -13 0
-18 -7 -17 -27z"/>
<path d="M3400 6176 c0 -8 5 -18 11 -22 8 -4 7 -9 -2 -15 -10 -6 -10 -9 -2 -9
18 0 26 19 13 34 -8 11 -8 15 2 19 8 4 7 6 -4 6 -10 1 -18 -5 -18 -13z"/>
<path d="M2702 6155 c-28 -26 -20 -55 15 -55 22 0 23 3 17 38 -4 20 -7 38 -8
38 0 1 -11 -8 -24 -21z m21 -20 c8 -18 -11 -31 -25 -17 -11 11 -3 32 12 32 4
0 10 -7 13 -15z"/>
<path d="M2840 6171 c12 -9 12 -11 -3 -17 -26 -9 -21 -34 7 -34 21 0 23 3 17
27 -4 15 -14 28 -22 31 -12 3 -12 2 1 -7z m10 -31 c0 -5 -5 -10 -11 -10 -5 0
-7 5 -4 10 3 6 8 10 11 10 2 0 4 -4 4 -10z"/>
<path d="M2881 6153 c2 -23 2 -24 6 -5 2 12 9 22 14 22 5 0 14 -10 19 -22 10
-23 10 -23 7 2 -1 17 -9 26 -24 28 -20 3 -23 -1 -22 -25z"/>
<path d="M2755 6160 c-4 -6 -2 -17 4 -24 6 -7 8 -16 4 -19 -3 -4 -1 -7 5 -7
19 0 24 20 7 26 -9 4 -14 13 -11 20 6 16 0 19 -9 4z"/>
<path d="M3634 6149 c0 -20 11 -25 20 -10 3 5 0 13 -7 19 -10 8 -13 6 -13 -9z"/>
<path d="M3610 6135 c0 -14 4 -25 9 -25 4 0 6 11 3 25 -2 14 -6 25 -8 25 -2 0
-4 -11 -4 -25z"/>
<path d="M2633 6143 c-16 -6 -17 -39 -2 -49 7 -4 9 0 5 14 -10 29 12 38 24 10
l10 -23 -3 24 c-2 25 -13 33 -34 24z"/>
<path d="M3697 6143 c-4 -3 -7 -20 -6 -37 0 -17 3 -26 5 -19 3 7 11 10 19 7 7
-3 16 0 20 6 5 8 11 6 20 -6 17 -23 47 -11 43 18 -2 12 -10 23 -18 25 -12 4
-12 3 -2 -5 11 -7 9 -10 -6 -14 -14 -4 -22 0 -25 13 -5 18 -37 26 -50 12z m37
-11 c2 -4 1 -14 -4 -22 -7 -11 -12 -12 -21 -3 -6 6 -8 16 -5 22 8 13 23 14 30
3z m51 -32 c-3 -5 -10 -10 -16 -10 -5 0 -9 5 -9 10 0 6 7 10 16 10 8 0 12 -4
9 -10z"/>
<path d="M3857 6121 c-9 -45 -8 -61 3 -33 13 31 34 29 26 -4 -5 -17 -3 -23 4
-19 14 9 12 43 -4 52 -7 4 -15 15 -18 23 -2 8 -8 0 -11 -19z"/>
<path d="M2464 6126 c-3 -7 -1 -29 4 -47 10 -33 10 -33 9 13 -2 51 -4 57 -13
34z"/>
<path d="M3817 6113 c-3 -16 -1 -32 4 -37 5 -6 9 -2 9 11 0 12 3 28 6 37 3 9
2 16 -4 16 -5 0 -12 -12 -15 -27z"/>
<path d="M2563 6114 c-8 -22 18 -46 37 -34 12 8 10 10 -10 10 l-25 1 23 10
c15 5 20 13 16 21 -6 9 -9 9 -12 0 -2 -7 -8 -12 -13 -12 -6 0 -7 5 -4 10 3 6
4 10 0 10 -3 0 -8 -7 -12 -16z"/>
<path d="M2507 6113 c-9 -9 -9 -53 1 -53 4 0 7 14 7 30 0 17 0 30 -1 30 0 0
-4 -3 -7 -7z"/>
<path d="M2538 6093 c5 -21 7 -23 10 -9 2 10 0 22 -6 28 -6 6 -7 0 -4 -19z"/>
<path d="M3982 6086 c-6 -22 -9 -42 -6 -45 2 -3 7 5 11 17 8 30 21 28 25 -5 3
-27 3 -27 10 -5 3 13 1 28 -6 35 -7 7 -15 19 -18 27 -3 9 -10 -1 -16 -24z"/>
<path d="M3946 6103 c-10 -10 -7 -63 4 -63 5 0 7 7 4 15 -4 8 -1 22 5 29 12
14 0 32 -13 19z"/>
<path d="M2331 6090 c0 -8 6 -28 14 -45 17 -39 18 -21 0 25 -7 19 -14 28 -14
20z"/>
<path d="M2393 6070 c-5 -19 -6 -20 -19 -3 -7 10 -14 13 -14 7 0 -6 7 -17 16
-25 9 -7 13 -21 10 -32 -3 -11 -1 -16 3 -11 10 11 22 84 14 84 -2 0 -7 -9 -10
-20z"/>
<path d="M4058 6061 c10 -6 8 -10 -8 -14 -26 -7 -22 -32 6 -32 13 0 20 8 22
28 3 21 -1 27 -15 27 -14 0 -15 -2 -5 -9z m12 -25 c0 -11 -19 -15 -25 -6 -3 5
1 10 9 10 9 0 16 -2 16 -4z"/>
<path d="M4101 6047 c-14 -36 -14 -47 0 -47 5 0 8 4 4 9 -3 5 1 16 9 24 9 8
11 19 6 28 -7 10 -11 7 -19 -14z"/>
<path d="M2311 6053 c0 -4 4 -17 9 -28 8 -19 9 -19 9 2 1 12 -3 25 -9 28 -5 3
-10 3 -9 -2z"/>
<path d="M4161 6029 c-6 -18 -11 -37 -10 -43 0 -6 7 7 15 28 8 22 12 41 10 43
-2 2 -9 -10 -15 -28z"/>
<path d="M2243 6040 c-25 -10 -29 -26 -12 -50 8 -12 9 -9 5 13 -7 31 13 38 21
7 8 -29 21 -25 15 5 -5 30 14 34 23 4 9 -27 16 -20 8 9 -6 23 -23 27 -60 12z"/>
<path d="M2131 6018 c-6 -16 -3 -30 7 -45 18 -29 24 -29 13 0 -4 12 -7 32 -6
45 2 28 -3 28 -14 0z"/>
<path d="M2178 6013 c10 -4 10 -8 1 -19 -16 -19 3 -40 24 -28 20 12 4 54 -20
53 -11 0 -13 -3 -5 -6z m22 -33 c0 -5 -4 -10 -10 -10 -5 0 -10 5 -10 10 0 6 5
10 10 10 6 0 10 -4 10 -10z"/>
<path d="M4176 6004 c-8 -22 -8 -22 17 -35 20 -11 21 -11 8 4 -7 9 -11 24 -7
32 3 8 1 15 -3 15 -5 0 -12 -7 -15 -16z"/>
<path d="M4214 6013 c4 -6 0 -14 -6 -16 -8 -3 -6 -6 5 -6 10 -1 17 -9 17 -21
0 -11 4 -20 9 -20 5 0 8 7 7 16 0 9 5 19 13 22 10 3 12 -2 7 -22 -3 -14 -2
-26 3 -26 5 0 12 11 15 24 3 13 9 32 12 43 4 11 3 14 -3 7 -13 -19 -57 -21
-71 -4 -8 8 -11 10 -8 3z"/>
<path d="M2092 5968 c-2 -21 -13 -23 -32 -5 -8 6 -4 0 9 -15 14 -16 20 -32 16
-40 -6 -10 -5 -10 4 -2 7 7 11 26 8 45 -2 19 -5 26 -5 17z"/>
<path d="M4326 5958 c-10 -39 -7 -44 9 -14 17 33 18 36 6 36 -5 0 -11 -10 -15
-22z"/>
<path d="M2004 5950 c-30 -12 -37 -27 -24 -47 11 -17 11 -17 6 0 -10 32 5 42
24 16 l18 -23 -5 30 -4 29 20 -24 c23 -25 27 -21 11 10 -12 21 -15 22 -46 9z"/>
<path d="M4362 5948 c-14 -14 -16 -35 -4 -42 5 -3 8 4 8 14 -1 11 4 19 9 19 6
0 10 -9 9 -19 -1 -24 11 -26 20 -4 8 22 8 22 -12 33 -13 7 -23 6 -30 -1z"/>
<path d="M1908 5934 c-7 -10 20 -80 27 -72 3 3 -1 22 -8 43 -8 21 -16 34 -19
29z"/>
<path d="M4441 5903 c-8 -18 -9 -29 -1 -37 7 -7 10 -4 10 10 0 11 5 25 11 31
6 6 7 13 1 17 -5 3 -14 -6 -21 -21z"/>
<path d="M4476 5894 c-18 -39 -15 -60 4 -25 16 31 33 26 26 -6 -5 -24 -4 -25
5 -10 8 14 7 26 -3 48 l-14 29 -18 -36z"/>
<path d="M1860 5867 c0 -26 27 -44 43 -28 15 15 3 46 -21 49 -18 3 -22 -1 -22
-21z m38 -4 c-4 -22 -22 -20 -26 1 -2 10 3 16 13 16 10 0 15 -7 13 -17z"/>
<path d="M4532 5855 c-6 -14 -8 -25 -3 -25 8 0 23 41 17 47 -1 2 -8 -8 -14
-22z"/>
<path d="M1790 5853 c1 -17 37 -55 44 -45 3 5 -1 13 -10 16 -9 4 -14 13 -10
21 3 9 0 15 -9 15 -8 0 -15 -3 -15 -7z"/>
<path d="M4563 5840 c3 -10 0 -21 -7 -24 -6 -2 -3 -5 8 -5 13 -1 17 4 13 19
-3 10 0 21 7 24 6 2 3 5 -8 5 -13 1 -17 -4 -13 -19z"/>
<path d="M2893 5835 c-337 -43 -674 -158 -959 -329 -191 -114 -198 -126 -24
-37 386 197 716 285 1180 316 115 7 397 -11 550 -35 369 -60 766 -213 1075
-416 52 -34 22 -3 -43 44 -312 227 -668 375 -1066 443 -159 28 -546 35 -713
14z"/>
<path d="M1765 5831 c-3 -6 1 -21 10 -33 16 -23 16 -23 9 7 -8 37 -10 39 -19
26z"/>
<path d="M4620 5800 c0 -30 0 -30 25 -14 14 9 23 19 21 22 -3 3 -13 -1 -22 -9
-16 -13 -17 -12 -12 9 4 12 2 22 -3 22 -5 0 -9 -14 -9 -30z"/>
<path d="M1710 5793 c0 -14 -7 -19 -27 -18 -35 0 -39 -22 -13 -55 11 -14 19
-20 18 -15 -4 13 27 56 38 54 25 -4 35 3 32 24 -4 29 -48 38 -48 10z m38 -10
c-4 -22 -22 -20 -26 1 -2 10 3 16 13 16 10 0 15 -7 13 -17z m-52 -24 c3 -6 1
-16 -5 -22 -9 -9 -14 -8 -21 3 -5 8 -10 18 -10 23 0 11 28 8 36 -4z"/>
<path d="M4670 5785 c-14 -17 -7 -45 12 -44 10 0 10 2 1 6 -7 2 -13 9 -13 15
0 6 7 7 16 4 23 -9 37 3 23 20 -15 18 -23 18 -39 -1z m35 -5 c3 -5 2 -10 -4
-10 -5 0 -13 5 -16 10 -3 6 -2 10 4 10 5 0 13 -4 16 -10z"/>
<path d="M4722 5758 c-19 -19 -14 -33 6 -15 23 21 35 11 21 -15 -6 -11 -9 -22
-6 -24 2 -2 10 8 17 22 12 22 12 27 0 34 -20 13 -24 12 -38 -2z"/>
<path d="M1601 5736 c-9 -11 -8 -21 6 -44 l19 -30 13 29 c10 23 10 33 1 44
-15 19 -24 19 -39 1z m37 -19 c2 -10 -3 -17 -11 -17 -16 0 -30 24 -19 34 10
10 27 1 30 -17z"/>
<path d="M4781 5732 c-6 -11 -11 -29 -10 -39 0 -14 2 -14 6 -3 3 8 11 20 18
26 8 6 10 15 5 23 -6 11 -10 9 -19 -7z"/>
<path d="M4811 5702 c-15 -28 -14 -39 5 -46 16 -6 43 18 43 39 1 6 -8 -1 -18
-14 -12 -16 -20 -20 -25 -12 -4 7 -2 19 5 27 6 8 9 17 6 20 -3 3 -10 -3 -16
-14z"/>
<path d="M1572 5690 c19 -29 -1 -38 -22 -10 -11 14 -20 20 -20 14 0 -6 9 -19
20 -29 16 -14 22 -15 35 -5 11 9 12 17 4 31 -5 10 -14 19 -19 19 -6 0 -5 -9 2
-20z"/>
<path d="M1502 5663 c2 -10 10 -17 17 -15 9 2 11 -3 8 -13 -4 -8 -2 -15 3 -15
6 0 10 9 10 20 0 11 -7 20 -16 20 -8 0 -12 5 -9 10 3 6 1 10 -5 10 -6 0 -10
-8 -8 -17z"/>
<path d="M4860 5661 c-13 -25 -13 -42 1 -18 5 9 17 17 25 17 8 0 12 5 9 10
-10 16 -23 12 -35 -9z"/>
<path d="M4896 5645 c-19 -19 -17 -37 5 -43 12 -3 12 -2 -1 7 -8 5 -11 13 -7
17 3 4 13 1 21 -5 20 -17 33 6 14 26 -13 13 -17 12 -32 -2z m29 -5 c3 -5 1
-10 -4 -10 -6 0 -11 5 -11 10 0 6 2 10 4 10 3 0 8 -4 11 -10z"/>
<path d="M1438 5629 c-10 -5 -18 -17 -18 -24 0 -8 -9 -15 -19 -15 -11 0 -23
-4 -26 -10 -7 -11 14 -54 23 -46 3 4 0 12 -6 18 -7 7 -12 16 -12 20 0 15 29 8
40 -9 9 -15 10 -14 4 7 -6 22 -5 23 10 11 13 -11 19 -11 31 -1 18 15 20 -1 3
-19 -11 -11 -10 -13 2 -9 22 7 23 39 2 65 -13 17 -21 20 -34 12z m27 -19 c11
-17 -5 -32 -21 -19 -7 6 -11 15 -8 20 7 12 21 11 29 -1z"/>
<path d="M4971 5604 c-12 -15 -21 -32 -21 -38 0 -6 7 0 16 13 12 16 19 20 27
12 8 -8 8 -14 -1 -23 -15 -15 -16 -32 -2 -23 6 3 10 -2 11 -12 0 -10 3 -13 6
-5 2 6 9 12 15 12 6 0 8 -7 4 -15 -3 -8 -1 -15 4 -15 15 0 23 41 10 54 -8 8
-10 7 -5 -6 5 -13 2 -15 -14 -11 -15 4 -20 11 -16 23 3 10 1 21 -5 25 -6 4 -9
13 -6 21 8 21 0 17 -23 -12z"/>
<path d="M2905 5554 c-294 -39 -630 -159 -855 -304 -95 -61 -96 -67 -4 -22
373 186 742 274 1149 275 410 0 752 -79 1127 -261 75 -37 134 -64 132 -60 -11
17 -199 126 -309 179 -210 100 -424 163 -658 194 -144 18 -442 18 -582 -1z"/>
<path d="M1356 5535 c9 -14 19 -24 21 -21 6 6 -20 46 -30 46 -4 0 0 -11 9 -25z"/>
<path d="M1316 5532 c-3 -5 3 -17 14 -27 23 -21 26 -9 6 18 -8 10 -17 14 -20
9z"/>
<path d="M5065 5508 c6 -18 4 -20 -11 -14 -15 5 -16 4 -7 -5 14 -14 36 -2 29
16 -3 8 0 16 7 19 7 2 4 5 -6 5 -14 1 -17 -4 -12 -21z"/>
<path d="M1276 5501 c-10 -16 5 -41 24 -41 11 0 21 4 24 9 4 5 -4 7 -16 4 -21
-4 -22 -3 -5 10 9 8 17 17 17 21 0 9 -38 7 -44 -3z m24 -5 c0 -3 -4 -8 -10
-11 -5 -3 -10 -1 -10 4 0 6 5 11 10 11 6 0 10 -2 10 -4z"/>
<path d="M5119 5479 c-20 -28 -20 -32 -5 -47 15 -15 17 -15 32 0 11 11 14 23
9 35 -5 10 -7 24 -6 31 3 20 -6 14 -30 -19z m31 -24 c0 -8 -9 -15 -20 -15 -13
0 -18 5 -14 15 4 8 12 15 20 15 8 0 14 -7 14 -15z"/>
<path d="M1257 5459 c5 -19 4 -20 -18 -10 -23 12 -23 11 -5 -3 28 -22 45 -20
39 4 -3 11 -9 22 -13 25 -5 3 -6 -4 -3 -16z"/>
<path d="M1194 5428 c-5 -7 -3 -8 6 -3 9 5 10 2 6 -13 -8 -25 10 -38 30 -21
13 10 12 14 -2 30 -20 22 -30 24 -40 7z m36 -28 c0 -5 -4 -10 -10 -10 -5 0
-10 5 -10 10 0 6 5 10 10 10 6 0 10 -4 10 -10z"/>
<path d="M5160 5424 c-11 -12 -10 -18 3 -30 9 -8 12 -9 7 -2 -16 20 -11 29 9
18 21 -11 37 2 26 20 -9 15 -31 12 -45 -6z m40 -4 c0 -5 -2 -10 -4 -10 -3 0
-8 5 -11 10 -3 6 -1 10 4 10 6 0 11 -4 11 -10z"/>
<path d="M3380 5379 c-144 -97 -241 -291 -239 -480 1 -116 14 -145 24 -54 12
108 41 208 85 293 39 76 133 192 171 213 18 9 19 7 13 -33 -15 -107 -48 -222
-84 -294 -22 -43 -38 -79 -36 -81 12 -13 111 166 140 254 21 64 35 187 24 208
-14 23 -30 19 -98 -26z"/>
<path d="M1174 5385 c2 -16 8 -31 15 -33 15 -5 14 7 -4 38 l-14 25 3 -30z"/>
<path d="M5200 5384 c-11 -12 -11 -18 2 -30 13 -13 15 -13 14 7 -1 12 5 24 12
26 6 3 12 0 12 -7 0 -6 -6 -8 -12 -4 -10 5 -10 4 -1 -6 15 -16 28 -7 20 15 -8
19 -31 19 -47 -1z"/>
<path d="M1147 5363 c5 -13 2 -15 -13 -10 -19 7 -19 7 0 -8 27 -21 34 -19 32
10 0 14 -6 25 -13 25 -7 0 -10 -7 -6 -17z"/>
<path d="M5246 5342 l-20 -27 22 18 c27 25 50 12 26 -14 -9 -10 -12 -19 -6
-19 10 0 38 39 30 44 -2 1 -10 7 -18 13 -12 9 -19 6 -34 -15z"/>
<path d="M1515 5350 c-68 -21 -135 -103 -135 -167 0 -45 35 -92 86 -114 39
-18 58 -19 147 -14 92 6 105 4 135 -14 24 -16 32 -28 32 -50 0 -43 -9 -60 -41
-76 -40 -21 -47 -19 -84 20 l-32 35 -26 -21 c-35 -26 -34 -58 1 -92 54 -52
162 -21 223 64 35 49 34 136 -1 174 -45 48 -74 57 -179 55 -53 -1 -108 -2
-122 -1 -33 1 -69 36 -69 66 0 28 35 65 63 65 10 0 31 -13 45 -30 31 -35 43
-37 65 -12 52 58 -24 137 -108 112z"/>
<path d="M1082 5328 c-9 -9 -8 -16 5 -30 9 -10 21 -18 26 -18 6 0 2 9 -8 20
-24 26 -11 39 15 15 21 -19 28 -7 8 13 -15 15 -31 15 -46 0z"/>
<path d="M3595 5318 c-49 -25 -85 -57 -85 -75 0 -8 19 -3 59 17 85 44 93 42
85 -22 -18 -138 -86 -233 -211 -295 -80 -40 -82 -53 -5 -33 96 24 211 124 257
223 27 57 33 138 13 182 -14 32 -56 33 -113 3z"/>
<path d="M4731 5175 c-118 -79 -216 -147 -219 -150 -7 -6 38 -55 51 -55 5 0
32 16 58 35 27 19 52 35 55 35 3 0 30 -21 59 -46 l54 -47 -30 -58 c-16 -32
-29 -60 -29 -63 0 -2 16 -16 35 -31 l36 -26 115 237 c63 131 111 240 107 243
-4 3 -24 21 -43 38 l-36 33 -213 -145z m144 -65 l-56 -112 -42 35 c-23 19 -42
39 -42 45 0 10 187 153 193 147 2 -2 -22 -53 -53 -115z"/>
<path d="M2949 5287 c-25 -17 -34 -30 -34 -52 0 -36 21 -44 29 -11 4 17 17 28
42 36 83 28 141 -49 98 -131 -26 -51 3 -81 40 -40 40 44 32 143 -15 191 -26
25 -38 30 -78 30 -33 0 -58 -7 -82 -23z"/>
<path d="M1065 5280 c19 -21 13 -42 -7 -22 -17 17 -33 15 -18 -3 15 -18 32
-19 48 -3 9 9 8 16 -5 30 -9 10 -21 18 -26 18 -6 0 -2 -9 8 -20z"/>
<path d="M5336 5286 c4 -11 0 -13 -15 -9 -15 4 -21 1 -21 -10 0 -22 22 -27 42
-10 16 15 14 43 -3 43 -4 0 -6 -6 -3 -14z m-6 -26 c0 -5 -2 -10 -4 -10 -3 0
-8 5 -11 10 -3 6 -1 10 4 10 6 0 11 -4 11 -10z"/>
<path d="M5352 5248 c-19 -19 -14 -29 8 -16 27 17 37 2 14 -24 l-18 -23 24 22
c20 18 21 24 10 37 -15 19 -22 20 -38 4z"/>
<path d="M980 5211 c0 -30 23 -43 46 -26 18 14 18 15 -5 12 -13 -1 -26 4 -28
11 -3 6 0 12 7 12 6 0 8 -5 4 -12 -4 -7 -3 -8 4 -4 19 11 14 26 -8 26 -13 0
-20 -7 -20 -19z"/>
<path d="M2720 5206 c-43 -23 -81 -68 -68 -81 3 -3 17 5 31 19 32 32 99 51
127 36 11 -6 31 -33 45 -60 28 -56 55 -66 55 -22 0 55 -74 132 -127 132 -10 0
-38 -11 -63 -24z"/>
<path d="M3771 5199 c-25 -23 -25 -46 1 -63 13 -8 21 -6 36 7 25 22 46 21 92
-4 43 -25 65 -58 62 -97 -1 -26 -1 -26 13 -8 36 47 -1 138 -68 170 -49 23
-108 21 -136 -5z"/>
<path d="M5417 5182 c-21 -23 -21 -38 -1 -46 18 -7 44 10 44 27 0 5 -8 3 -18
-6 -24 -22 -37 -9 -15 15 9 10 14 20 11 23 -3 3 -12 -3 -21 -13z"/>
<path d="M945 5179 c-4 -6 -13 -8 -21 -5 -23 9 -15 -8 17 -32 31 -25 40 -21
13 6 -12 12 -13 17 -4 20 6 2 17 -1 23 -7 14 -14 30 -15 22 -1 -11 19 -43 31
-50 19z"/>
<path d="M5455 5130 c-19 -21 -8 -29 13 -8 20 20 26 -1 6 -23 -13 -15 -14 -20
-5 -17 27 8 37 36 20 53 -14 14 -17 14 -34 -5z"/>
<path d="M900 5134 c0 -11 34 -33 50 -33 8 0 5 4 -7 9 -13 5 -23 14 -23 20 0
5 -4 10 -10 10 -5 0 -10 -3 -10 -6z"/>
<path d="M868 5088 c-4 -8 -1 -21 5 -27 9 -9 5 -11 -13 -9 -21 3 -25 -1 -25
-22 0 -34 39 -36 43 -2 3 17 8 22 20 17 14 -5 14 -4 0 12 -8 10 -17 25 -20 32
-4 13 -5 12 -10 -1z m2 -63 c0 -8 -7 -15 -15 -15 -8 0 -15 7 -15 15 0 8 7 15
15 15 8 0 15 -7 15 -15z"/>
<path d="M5503 5075 c7 -16 -9 -30 -16 -15 -3 6 -4 5 -3 -2 4 -20 31 -15 29 5
-1 12 4 17 14 13 8 -3 11 -1 8 4 -10 16 -38 12 -32 -5z"/>
<path d="M2535 5055 c-31 -16 -55 -42 -55 -58 0 -5 14 3 31 17 38 32 90 34
137 6 30 -19 33 -24 31 -65 -3 -55 7 -67 32 -36 25 30 24 62 -3 96 -40 51
-116 69 -173 40z"/>
<path d="M3722 5048 c-7 -7 -12 -20 -12 -30 0 -15 6 -17 45 -11 41 5 47 3 73
-25 40 -43 55 -105 36 -150 -8 -19 -14 -37 -14 -39 0 -12 33 23 47 50 31 60
-6 171 -67 202 -35 18 -91 20 -108 3z"/>
<path d="M5515 5033 c-16 -15 -22 -24 -13 -21 10 4 19 1 22 -8 4 -11 13 -13
28 -8 21 6 21 5 9 -10 -12 -15 -12 -19 4 -34 18 -16 18 -16 6 1 -16 20 -6 36
11 19 17 -17 28 -15 28 4 0 9 -9 18 -20 21 -11 3 -20 10 -19 17 3 14 -11 46
-20 46 -3 0 -19 -13 -36 -27z m45 -7 c0 -8 -4 -17 -9 -21 -12 -7 -24 12 -16
25 9 15 25 12 25 -4z m40 -46 c0 -5 -2 -10 -4 -10 -3 0 -8 5 -11 10 -3 6 -1
10 4 10 6 0 11 -4 11 -10z"/>
<path d="M4064 5040 c-58 -22 -54 -75 7 -75 26 0 38 -7 56 -34 25 -36 30 -89
12 -123 -13 -24 -7 -32 19 -24 43 14 56 111 23 181 -29 63 -73 91 -117 75z"/>
<path d="M787 5033 c-5 -8 2 -22 19 -38 34 -32 50 -32 27 -1 -10 13 -21 22
-25 20 -3 -2 -8 4 -10 13 -3 13 -6 15 -11 6z"/>
<path d="M2898 5019 c-23 -11 -38 -27 -38 -38 0 -29 10 -30 35 -5 16 16 36 24
59 24 38 0 46 -8 55 -54 5 -22 13 -32 29 -34 27 -4 29 21 8 73 -24 58 -80 71
-148 34z"/>
<path d="M761 4961 c-9 -6 -5 -13 14 -25 22 -14 30 -15 39 -5 8 9 8 10 -1 5
-6 -3 -18 2 -25 13 -9 12 -19 17 -27 12z"/>
<path d="M1086 4930 c-10 -17 -16 -33 -14 -34 1 -2 66 -51 143 -108 196 -146
222 -181 174 -242 -43 -55 -86 -37 -300 125 -66 49 -124 87 -129 84 -5 -3 -18
-19 -30 -35 l-21 -29 118 -89 c159 -119 201 -147 246 -161 51 -17 96 -1 142
51 73 80 80 144 23 213 -28 33 -291 239 -321 251 -7 2 -21 -10 -31 -26z"/>
<path d="M2295 4941 c-39 -23 -85 -77 -85 -100 0 -18 18 -41 32 -41 4 0 5 12
3 28 -6 32 7 52 55 81 71 43 131 19 166 -68 17 -43 44 -55 44 -21 0 32 -25 74
-65 109 -43 37 -102 42 -150 12z"/>
<path d="M5629 4947 c13 -17 12 -18 -12 -12 -21 6 -27 3 -27 -8 0 -20 14 -29
33 -21 24 9 28 31 9 46 -15 12 -16 11 -3 -5z m-9 -27 c0 -5 -4 -10 -10 -10 -5
0 -10 5 -10 10 0 6 5 10 10 10 6 0 10 -4 10 -10z"/>
<path d="M2764 4926 c-30 -13 -44 -33 -44 -62 0 -8 5 -14 10 -14 6 0 10 7 10
15 0 18 31 35 64 35 17 0 33 -10 48 -30 28 -38 48 -39 48 -2 0 55 -73 86 -136
58z"/>
<path d="M5165 4821 c-88 -64 -170 -132 -182 -150 -34 -51 -31 -107 10 -167
17 -26 45 -57 60 -68 35 -26 98 -26 147 -1 26 13 294 199 319 221 7 6 -22 56
-35 61 -6 2 -61 -31 -120 -75 -233 -168 -265 -182 -311 -128 -28 33 -29 65 -2
100 11 14 90 76 175 137 l154 111 -18 30 c-9 16 -21 33 -27 37 -6 5 -79 -42
-170 -108z"/>
<path d="M741 4921 c-8 -5 -12 -18 -8 -30 4 -16 0 -21 -13 -21 -26 0 -34 -30
-13 -46 10 -7 23 -13 28 -13 6 -1 -1 8 -14 18 -29 22 -12 38 21 20 21 -11 22
-11 9 4 -12 15 -11 17 8 17 26 0 38 25 21 45 -14 17 -20 18 -39 6z m39 -21 c0
-5 -5 -12 -11 -16 -14 -8 -33 11 -25 25 7 11 36 4 36 -9z"/>
<path d="M5652 4908 c-19 -11 -29 -24 -24 -27 5 -3 12 -13 15 -21 4 -12 6 -11
6 3 1 9 9 17 19 18 11 0 12 2 4 6 -10 4 -9 9 4 24 22 24 17 24 -24 -3z"/>
<path d="M3627 4913 c-14 -14 -6 -21 37 -32 72 -18 99 -89 55 -145 -12 -15
-19 -29 -17 -32 11 -10 57 39 68 70 14 43 -4 92 -45 124 -26 21 -84 30 -98 15z"/>
<path d="M5696 4845 c7 -18 6 -19 -10 -6 -24 20 -47 -2 -25 -24 14 -14 17 -13
34 5 15 16 16 23 6 33 -10 9 -11 8 -5 -8z m-16 -15 c0 -5 -4 -10 -10 -10 -5 0
-10 5 -10 10 0 6 5 10 10 10 6 0 10 -4 10 -10z"/>
<path d="M2563 4815 c-15 -13 -23 -25 -17 -25 6 0 17 7 24 15 16 19 60 19 87
0 13 -9 28 -34 34 -56 11 -36 10 -42 -10 -70 -37 -50 -5 -83 39 -39 38 38 17
125 -42 175 -38 32 -79 32 -115 0z"/>
<path d="M2970 4820 c-87 -45 -176 -178 -206 -307 -21 -89 -15 -221 12 -283
l21 -45 -1 110 c0 119 18 204 59 284 24 49 149 201 165 201 5 0 14 -26 20 -57
22 -102 -3 -249 -69 -418 -17 -43 -33 -95 -37 -115 -4 -30 2 -23 40 45 94 164
126 272 126 420 0 90 -14 139 -47 165 -31 24 -38 24 -83 0z"/>
<path d="M641 4820 c0 -8 3 -19 7 -25 9 -12 52 -37 52 -30 0 9 -40 45 -41 38
0 -5 -4 1 -9 12 -6 13 -9 15 -9 5z"/>
<path d="M5708 4809 c-23 -17 -26 -24 -18 -40 6 -10 18 -19 26 -19 8 0 12 -4
9 -10 -10 -16 8 -11 40 11 27 19 21 19 -25 1 -13 -5 -13 -3 -1 11 10 13 11 20
2 30 -8 10 -7 17 1 25 20 20 -5 13 -34 -9z m26 -18 c7 -10 -22 -37 -30 -28 -9
8 3 37 15 37 5 0 12 -4 15 -9z"/>
<path d="M3486 4807 c-30 -22 -16 -52 26 -55 68 -6 92 -83 42 -137 -33 -36
-25 -43 13 -11 66 55 64 126 -3 186 -38 33 -52 36 -78 17z"/>
<path d="M3960 4795 c-17 -20 -6 -32 36 -40 42 -7 84 -45 84 -74 0 -11 -12
-33 -26 -50 -35 -42 -10 -39 32 3 55 55 43 125 -26 161 -37 19 -84 19 -100 0z"/>
<path d="M4213 4793 c-22 -8 -14 -38 17 -68 33 -32 39 -69 16 -113 -19 -36
-48 -61 -82 -72 l-29 -8 35 -1 c78 -2 160 97 140 169 -15 53 -30 77 -57 89
-13 6 -25 11 -26 10 -1 0 -8 -3 -14 -6z"/>
<path d="M656 4755 c10 -8 24 -14 29 -14 6 0 1 6 -9 14 -11 8 -24 15 -30 15
-5 0 -1 -7 10 -15z"/>
<path d="M2342 4754 c-43 -22 -65 -64 -52 -98 9 -24 39 -37 41 -18 5 47 26 72
61 72 11 0 35 -16 55 -35 20 -19 39 -35 43 -35 16 0 20 33 8 58 -29 58 -101
84 -156 56z"/>
<path d="M3832 4748 c-17 -17 -15 -38 3 -38 80 0 110 -102 48 -164 -17 -17
-21 -26 -12 -26 41 0 89 70 89 130 0 24 -10 42 -39 71 -40 40 -68 48 -89 27z"/>
<path d="M2073 4731 c-78 -36 -127 -136 -87 -176 22 -21 40 -13 36 16 -5 42 7
68 45 94 50 33 77 32 105 -5 24 -33 43 -38 52 -15 7 20 -7 56 -31 77 -30 28
-73 31 -120 9z"/>
<path d="M609 4714 c-10 -12 -9 -18 4 -31 17 -17 47 -11 46 9 0 10 -2 10 -6 1
-8 -21 -25 -15 -18 6 8 25 -9 35 -26 15z m21 -8 c0 -3 -4 -8 -10 -11 -5 -3
-10 -1 -10 4 0 6 5 11 10 11 6 0 10 -2 10 -4z"/>
<path d="M3291 4711 c-64 -22 -98 -47 -129 -91 -29 -43 -21 -49 20 -18 51 39
95 59 149 67 57 9 57 10 33 -83 -47 -184 -199 -390 -354 -479 -50 -28 -51 -40
-2 -31 129 22 270 159 357 348 57 123 83 264 53 294 -17 17 -64 14 -127 -7z"/>
<path d="M5740 4715 c-10 -13 -11 -18 -1 -28 10 -9 11 -8 6 6 -4 9 -3 17 3 17
6 0 15 -8 21 -17 9 -17 10 -17 16 -1 14 35 -21 52 -45 23z m40 -5 c0 -5 -2
-10 -4 -10 -3 0 -8 5 -11 10 -3 6 -1 10 4 10 6 0 11 -4 11 -10z"/>
<path d="M560 4687 c0 -3 16 -14 35 -26 19 -11 35 -17 35 -12 0 7 -14 15 -62
39 -5 2 -8 1 -8 -1z"/>
<path d="M5791 4651 c-8 -5 -12 -18 -8 -30 6 -24 -2 -27 -23 -8 -12 10 -12 9
-1 -5 17 -22 30 -23 59 -2 18 12 20 19 12 35 -12 21 -18 23 -39 10z m29 -15
c0 -16 -18 -31 -27 -22 -8 8 5 36 17 36 5 0 10 -6 10 -14z"/>
<path d="M563 4634 c-3 -8 -12 -13 -19 -10 -25 10 -15 -2 19 -22 33 -19 34
-19 46 0 9 15 9 23 0 34 -15 19 -38 18 -46 -2z m36 -8 c8 -10 9 -16 1 -21 -13
-8 -30 3 -30 21 0 18 14 18 29 0z"/>
<path d="M3690 4643 c-41 -16 -26 -53 21 -53 54 0 73 -47 45 -114 -18 -42 -61
-76 -98 -76 -17 0 -27 -4 -23 -10 10 -16 68 -11 98 8 51 34 77 81 77 137 0 43
-4 56 -27 77 -30 28 -68 41 -93 31z"/>
<path d="M5814 4584 c-18 -14 -18 -14 6 -3 31 14 36 19 24 19 -6 0 -19 -7 -30
-16z"/>
<path d="M554 4575 c11 -8 25 -15 30 -15 6 0 2 7 -8 15 -11 8 -25 15 -30 15
-6 0 -2 -7 8 -15z"/>
<path d="M2510 4579 c-38 -15 -80 -60 -80 -85 0 -30 28 -40 32 -11 4 25 61 67
93 67 32 0 72 -35 85 -75 14 -42 40 -47 40 -7 0 39 -32 86 -73 105 -39 19 -61
20 -97 6z"/>
<path d="M5847 4574 c-16 -9 -27 -17 -25 -19 8 -8 77 18 72 27 -7 11 -14 10
-47 -8z"/>
<path d="M522 4555 c3 -15 10 -19 27 -17 17 3 21 0 16 -10 -6 -10 -5 -10 5 -1
16 15 3 36 -18 28 -8 -3 -19 0 -24 7 -6 9 -8 7 -6 -7z"/>
<path d="M2182 4550 c-68 -31 -91 -120 -33 -128 19 -3 21 0 15 23 -10 41 19
65 78 65 54 0 64 17 26 44 -28 20 -34 20 -86 -4z"/>
<path d="M4020 4561 c0 -12 36 -57 95 -121 63 -67 78 -95 106 -197 12 -43 26
-87 31 -97 10 -18 11 -18 20 -1 16 28 3 138 -22 192 -15 30 -58 82 -118 141
-89 87 -112 104 -112 83z"/>
<path d="M3580 4551 c0 -5 9 -13 20 -16 25 -8 26 -37 3 -58 -24 -21 -99 -40
-126 -31 -20 6 -21 5 -7 -11 22 -26 121 -17 155 15 34 32 40 56 21 85 -16 24
-66 36 -66 16z"/>
<path d="M5851 4531 c-14 -11 -19 -21 -13 -25 5 -3 13 1 16 10 4 9 13 14 21
10 9 -3 15 0 15 9 0 20 -10 19 -39 -4z"/>
<path d="M501 4511 c-1 -18 3 -22 16 -17 9 4 20 1 25 -6 6 -10 8 -9 8 4 0 22
-16 32 -26 16 -5 -8 -10 -6 -15 8 -7 17 -8 17 -8 -5z"/>
<path d="M1874 4482 c-76 -36 -115 -114 -95 -190 16 -58 27 -53 23 10 -4 70
21 116 78 146 86 43 161 25 192 -48 19 -43 21 -44 31 -22 15 33 -2 72 -41 95
-48 28 -137 32 -188 9z"/>
<path d="M5930 4478 c0 -8 -15 -22 -32 -31 -26 -14 -27 -16 -8 -11 14 3 35 6
47 6 20 0 21 3 11 22 -15 29 -18 32 -18 14z"/>
<path d="M474 4466 c-4 -9 -1 -23 6 -31 10 -12 9 -15 -9 -15 -11 0 -21 -4 -21
-9 0 -5 9 -7 20 -4 14 4 20 0 20 -12 0 -13 -6 -16 -25 -11 -14 4 -25 4 -25 1
0 -4 54 -35 62 -35 6 0 2 46 -5 57 -4 6 2 13 14 16 15 4 20 12 17 29 -4 28
-45 38 -54 14z m42 -7 c3 -6 2 -15 -2 -19 -12 -12 -38 5 -30 19 9 14 23 14 32
0z"/>
<path d="M2252 4409 c-33 -33 -49 -70 -37 -88 11 -19 22 -12 18 12 -7 35 59
91 96 82 40 -10 60 -34 77 -92 17 -58 28 -67 38 -28 15 60 -56 145 -123 145
-28 0 -45 -8 -69 -31z"/>
<path d="M3867 4416 c-48 -24 -107 -72 -107 -87 0 -5 35 11 77 33 63 34 87 42
132 42 31 1 70 -3 86 -7 l30 -8 -28 25 c-38 35 -121 36 -190 2z"/>
<path d="M5923 4414 c-39 -17 -43 -27 -8 -18 29 7 34 -9 8 -26 -17 -11 -17
-11 0 -6 10 3 21 6 23 6 2 0 4 11 4 24 0 13 6 27 13 29 6 3 8 5 2 5 -5 0 -25
-6 -42 -14z"/>
<path d="M734 4374 c-9 -20 -12 -40 -7 -45 4 -4 107 -55 228 -114 l220 -105
19 40 c11 22 18 42 15 44 -6 6 -449 216 -455 216 -3 0 -12 -16 -20 -36z"/>
<path d="M3507 4373 c-14 -14 -6 -32 16 -35 17 -2 22 -10 22 -33 0 -37 -52
-75 -102 -75 -20 0 -32 -4 -28 -10 9 -15 72 -12 103 4 61 31 86 100 53 140
-14 16 -52 22 -64 9z"/>
<path d="M3394 4353 c-18 -55 -29 -75 -47 -88 -27 -19 -14 -31 18 -17 30 14
66 69 63 96 -4 26 -27 32 -34 9z"/>
<path d="M5450 4267 c-124 -49 -227 -91 -228 -93 -6 -4 18 -73 27 -79 5 -2 98
32 207 75 109 44 205 79 213 78 23 -5 44 -78 30 -110 -13 -31 -63 -58 -108
-58 -31 0 -81 37 -81 60 0 23 -20 5 -91 -82 -110 -137 -103 -124 -90 -169 6
-21 15 -41 20 -43 5 -3 43 39 86 94 l77 100 28 -20 c63 -45 147 -34 200 27 30
33 32 41 28 92 -5 57 -64 212 -83 217 -6 1 -111 -39 -235 -89z"/>
<path d="M5937 4348 c-15 -12 -14 -13 12 -13 19 0 27 4 24 13 -3 6 -8 12 -12
12 -4 0 -15 -6 -24 -12z"/>
<path d="M2548 4333 c-15 -9 -32 -27 -39 -39 -13 -25 -5 -74 12 -74 7 0 9 10
5 25 -13 50 75 100 112 63 17 -17 14 -57 -8 -107 -22 -47 -19 -62 8 -45 46 29
63 135 28 173 -23 26 -79 28 -118 4z"/>
<path d="M413 4324 c-9 -23 25 -48 44 -33 7 6 13 17 13 23 0 7 -3 6 -8 -2 -9
-14 -42 -6 -42 10 0 6 7 8 15 4 8 -3 15 -1 15 4 0 17 -30 11 -37 -6z"/>
<path d="M3610 4331 c0 -6 5 -13 10 -16 16 -10 11 -51 -10 -77 -27 -36 -80
-54 -190 -67 -90 -11 -160 -34 -160 -52 0 -5 12 -4 28 2 15 6 76 14 136 19
120 10 185 34 220 82 25 35 25 86 1 104 -22 16 -35 18 -35 5z"/>
<path d="M5938 4308 c-9 -23 3 -38 29 -38 20 0 24 4 21 23 -3 25 -42 37 -50
15z m42 -13 c0 -8 -6 -15 -14 -15 -17 0 -28 14 -19 24 12 12 33 6 33 -9z"/>
<path d="M1930 4274 c-24 -21 -30 -33 -28 -57 3 -33 28 -51 28 -20 0 11 12 30
26 44 25 23 26 23 55 6 39 -22 49 -21 49 1 0 53 -79 68 -130 26z"/>
<path d="M394 4265 c-4 -9 -13 -14 -20 -11 -32 12 -11 -5 23 -19 39 -16 56 -8
50 25 -3 21 -46 25 -53 5z m44 -12 c2 -8 -5 -13 -17 -13 -12 0 -21 6 -21 16 0
18 31 15 38 -3z"/>
<path d="M2133 4246 c-36 -17 -68 -59 -59 -81 8 -22 26 -19 26 4 0 26 37 51
76 51 43 0 67 -31 74 -93 5 -57 20 -66 35 -23 6 19 5 39 -5 68 -24 68 -88 100
-147 74z"/>
<path d="M5964 4246 c-3 -8 -2 -21 3 -30 7 -13 11 -13 33 0 l25 14 -27 -6
c-32 -7 -38 9 -10 25 16 10 16 10 -1 11 -10 0 -20 -6 -23 -14z"/>
<path d="M355 4190 c-7 -12 -9 -11 35 -15 19 -2 26 -1 15 2 -11 3 -25 9 -32
15 -7 6 -14 5 -18 -2z"/>
<path d="M2423 4180 c-18 -10 -39 -30 -48 -44 -19 -28 -17 -77 4 -84 9 -3 11
2 6 17 -9 28 16 66 56 86 28 15 33 15 55 1 36 -24 40 -60 14 -123 -26 -64 -20
-78 18 -40 23 24 27 35 27 88 0 56 -3 63 -33 90 -38 34 -56 36 -99 9z"/>
<path d="M3890 4193 c-19 -7 -60 -44 -60 -54 0 -4 17 2 37 12 50 26 92 24 195
-7 85 -26 118 -27 118 -2 0 27 -240 69 -290 51z"/>
<path d="M5984 4186 c-3 -8 -2 -21 2 -27 5 -9 2 -10 -12 -5 -14 5 -16 4 -7 -4
7 -8 23 -9 43 -5 25 5 31 11 28 28 -4 26 -45 36 -54 13z m41 -6 c3 -6 -1 -13
-10 -16 -19 -8 -30 0 -20 15 8 14 22 14 30 1z"/>
<path d="M1753 4160 c-36 -22 -58 -58 -68 -113 -10 -50 0 -83 30 -103 33 -22
43 -12 16 15 -24 24 -27 67 -7 115 16 37 60 76 87 76 27 0 59 -36 59 -65 0
-27 17 -34 26 -10 9 23 -4 62 -28 85 -28 25 -74 26 -115 0z"/>
<path d="M352 4147 c-9 -10 -8 -18 2 -32 18 -25 48 -13 44 17 -4 27 -30 35
-46 15z m33 -7 c11 -17 -5 -32 -21 -19 -7 6 -11 15 -8 20 7 12 21 11 29 -1z"/>
<path d="M6030 4135 c-34 -13 -34 -14 -7 -14 33 -1 35 -14 5 -29 -14 -6 -17
-11 -8 -11 23 -1 43 15 38 30 -3 8 2 19 11 26 21 16 5 15 -39 -2z"/>
<path d="M2005 4111 c-42 -18 -88 -89 -78 -118 3 -7 14 -13 25 -13 15 0 18 5
13 20 -5 14 2 29 24 50 49 50 87 33 102 -45 15 -82 49 -89 49 -9 0 36 -6 51
-32 79 -35 37 -71 49 -103 36z"/>
<path d="M2722 4089 c-101 -50 -199 -179 -246 -324 -18 -57 -36 -215 -35 -320
0 -103 15 -54 33 113 9 80 24 163 36 194 57 152 181 291 289 323 l24 7 -5 -88
c-3 -49 -9 -97 -13 -106 -4 -11 -3 -18 4 -18 23 0 61 102 61 161 0 95 -42 111
-148 58z"/>
<path d="M3490 4084 c-64 -43 -107 -81 -123 -109 -7 -13 2 -9 26 12 21 18 52
40 70 49 44 22 97 63 97 75 0 15 -13 10 -70 -27z"/>
<path d="M4290 4099 c0 -5 4 -9 9 -9 20 0 109 -91 178 -184 42 -56 102 -128
133 -161 32 -33 60 -70 63 -83 8 -33 -11 -89 -35 -106 -34 -24 -13 -30 29 -10
74 37 68 120 -16 221 -26 32 -86 108 -134 170 -47 61 -103 121 -122 133 -41
25 -105 43 -105 29z"/>
<path d="M334 4089 c-3 -5 6 -9 20 -9 31 0 34 6 6 13 -11 3 -23 1 -26 -4z"/>
<path d="M320 4061 c0 -8 34 -21 55 -21 11 1 -35 29 -47 30 -5 0 -8 -4 -8 -9z"/>
<path d="M4006 4060 c-37 -11 -60 -33 -91 -86 -36 -62 -31 -64 23 -11 33 32
65 53 97 62 63 20 65 19 65 -10 0 -14 -4 -25 -10 -25 -5 0 -10 9 -10 21 0 12
-4 17 -11 14 -6 -4 -9 -26 -7 -49 l3 -41 -53 0 c-56 1 -65 -13 -16 -27 75 -22
134 21 134 98 0 33 -5 46 -19 54 -23 12 -64 12 -105 0z"/>
<path d="M3088 4036 c-87 -36 -195 -116 -157 -116 8 0 39 12 69 26 102 48 180
74 225 74 25 0 45 -5 45 -10 0 -28 -57 -118 -102 -162 -62 -60 -38 -64 34 -5
103 83 149 186 92 207 -46 18 -145 11 -206 -14z"/>
<path d="M6037 4043 c-4 -3 -7 -16 -7 -27 -1 -21 -1 -21 -15 -2 -8 11 -15 15
-15 9 0 -29 70 -38 86 -11 3 5 -5 6 -20 2 -20 -5 -26 -2 -26 11 0 12 6 16 20
12 11 -3 20 -1 20 4 0 10 -33 12 -43 2z"/>
<path d="M3478 3976 c-59 -66 -146 -130 -191 -141 -35 -9 -35 -25 1 -25 81 0
204 104 242 204 5 14 8 26 7 26 -1 0 -28 -29 -59 -64z"/>
<path d="M288 4014 c6 -3 12 -16 12 -29 0 -27 26 -40 46 -24 21 17 17 37 -8
44 -36 10 -64 15 -50 9z m51 -23 c7 -5 11 -14 7 -19 -9 -15 -36 -4 -36 14 0
16 9 18 29 5z"/>
<path d="M4276 3990 c12 -49 46 -90 110 -134 35 -25 64 -42 64 -39 0 4 -35 41
-78 83 -42 41 -83 84 -90 95 -12 19 -12 18 -6 -5z"/>
<path d="M2253 3980 c-36 -22 -52 -62 -33 -85 19 -23 27 -18 22 13 -4 33 16
59 54 68 33 8 52 -1 66 -32 10 -22 8 -38 -16 -107 -28 -82 -31 -117 -9 -124
17 -6 56 122 57 188 1 43 -4 62 -18 78 -25 27 -80 28 -123 1z"/>
<path d="M6055 3981 c-17 -7 -15 -9 13 -13 22 -3 32 -1 32 9 0 14 -15 16 -45
4z"/>
<path d="M280 3940 c14 -4 34 -8 45 -8 16 0 15 2 -5 8 -14 4 -34 8 -45 8 -16
0 -15 -2 5 -8z"/>
<path d="M1025 3875 c-11 -45 -24 -75 -32 -75 -7 0 -100 25 -208 55 -107 30
-201 55 -209 55 -12 0 -30 -42 -31 -74 0 -11 478 -146 487 -137 3 3 20 57 38
120 25 91 28 116 18 122 -33 21 -45 9 -63 -66z"/>
<path d="M6055 3940 c-3 -5 -2 -16 2 -24 11 -19 53 -2 53 21 0 14 -2 15 -9 4
-6 -9 -11 -10 -15 -2 -9 14 -23 14 -31 1z m25 -10 c0 -5 -4 -10 -10 -10 -5 0
-10 5 -10 10 0 6 5 10 10 10 6 0 10 -4 10 -10z"/>
<path d="M1880 3927 c-27 -14 -72 -75 -67 -91 6 -17 27 -18 27 -1 0 24 46 65
73 65 44 0 89 -75 57 -95 -16 -10 -12 -45 7 -52 19 -8 53 30 53 59 0 77 -90
146 -150 115z"/>
<path d="M298 3908 c30 -15 28 -26 -5 -30 l-28 -3 28 -6 c23 -5 30 -2 37 15 5
15 3 23 -9 28 -27 11 -48 8 -23 -4z"/>
<path d="M4125 3881 c-10 -23 -34 -55 -52 -71 -41 -36 -27 -40 15 -5 31 26 66
88 60 107 -2 6 -12 -8 -23 -31z"/>
<path d="M6093 3893 c-14 -3 -23 -11 -22 -21 0 -11 3 -12 6 -4 2 6 16 12 29
12 13 0 24 5 24 10 0 6 -3 9 -7 9 -5 -1 -18 -4 -30 -6z"/>
<path d="M270 3845 c-7 -8 -10 -22 -6 -30 3 -8 0 -15 -6 -15 -7 0 -3 -7 8 -15
17 -13 17 -14 2 -15 -10 0 -18 -5 -18 -11 0 -6 9 -8 23 -3 32 10 34 14 13 30
-19 14 -19 14 2 14 13 0 25 7 28 15 6 15 -11 45 -26 45 -4 0 -13 -7 -20 -15z
m40 -15 c0 -5 -5 -12 -11 -16 -14 -8 -33 11 -25 25 7 11 36 4 36 -9z"/>
<path d="M2819 3832 c-100 -52 -156 -172 -146 -312 3 -41 8 -82 12 -91 7 -18
-40 -42 -108 -54 -21 -4 -40 -12 -44 -18 -6 -11 127 -4 158 8 12 5 24 -7 47
-47 39 -70 147 -172 214 -203 66 -31 115 -32 158 -2 39 26 56 56 22 38 -37
-20 -96 -12 -160 19 -71 36 -177 143 -212 214 -70 147 -21 344 102 407 58 30
126 21 191 -24 36 -25 46 -14 20 21 -58 78 -156 95 -254 44z"/>
<path d="M6080 3850 c-13 -9 -13 -10 0 -9 8 0 24 4 35 9 l20 9 -20 0 c-11 0
-27 -4 -35 -9z"/>
<path d="M3474 3762 c13 -176 56 -248 211 -352 57 -39 112 -82 121 -95 9 -14
19 -23 22 -21 11 11 -35 66 -142 171 -125 123 -165 186 -190 308 -20 100 -30
95 -22 -11z"/>
<path d="M2104 3806 c-28 -28 -34 -42 -34 -75 0 -35 4 -43 25 -53 19 -9 28 -9
37 0 8 8 7 13 -5 18 -24 9 -21 55 3 82 24 26 38 27 67 7 31 -22 34 -50 7 -102
-28 -57 -18 -79 21 -43 36 34 49 90 31 133 -30 74 -97 88 -152 33z"/>
<path d="M6103 3830 c-13 -5 -23 -15 -23 -21 0 -8 4 -8 15 1 8 7 22 10 30 6 9
-3 15 0 15 9 0 17 -6 18 -37 5z"/>
<path d="M6113 3790 c-26 -10 -31 -38 -9 -46 8 -3 23 -1 33 5 16 10 15 11 -6
9 -13 -2 -26 3 -28 10 -3 7 4 12 16 12 12 0 21 5 21 10 0 6 -1 10 -2 9 -2 0
-13 -4 -25 -9z"/>
<path d="M3317 3731 c-46 -48 -57 -66 -57 -93 0 -41 15 -58 50 -58 30 0 60 27
60 54 0 15 -2 15 -31 0 -62 -32 -62 15 0 95 62 80 53 80 -22 2z"/>
<path d="M1748 3764 c-52 -28 -72 -100 -47 -175 16 -49 33 -63 63 -55 30 8 35
26 6 26 -26 0 -40 29 -40 85 0 85 81 129 118 65 20 -36 48 -36 44 0 -6 58 -84
87 -144 54z"/>
<path d="M275 3740 c3 -6 -4 -10 -16 -10 -12 0 -20 -3 -16 -6 10 -10 58 5 52
16 -3 6 -11 10 -16 10 -6 0 -7 -4 -4 -10z"/>
<path d="M5641 3699 c-133 -21 -245 -40 -247 -42 -4 -4 19 -178 32 -234 3 -17
11 -23 33 -23 l28 0 -14 86 c-7 48 -12 88 -10 90 4 4 129 24 153 24 19 0 22
-7 29 -65 3 -36 10 -67 14 -69 4 -3 18 -2 30 1 21 5 22 10 16 57 -3 28 -7 60
-8 71 -2 17 8 21 73 31 51 8 77 8 81 1 4 -5 10 -38 14 -71 3 -34 9 -67 13 -73
10 -16 52 -5 52 14 0 30 -33 228 -39 234 -3 3 -116 -11 -250 -32z"/>
<path d="M6105 3720 c-3 -6 -4 -19 0 -29 5 -16 11 -18 41 -11 39 9 56 20 32
20 -9 0 -18 7 -22 15 -6 17 -42 20 -51 5z m45 -15 c0 -8 -9 -15 -20 -15 -20 0
-26 11 -13 23 12 13 33 7 33 -8z"/>
<path d="M2913 3713 c-52 -10 -88 -86 -81 -168 3 -35 5 -37 10 -15 4 14 10 42
13 63 11 69 72 104 123 71 l27 -18 -32 -8 c-48 -13 -73 -51 -72 -112 l0 -51
13 48 c13 48 40 87 61 87 6 0 19 -6 29 -13 16 -12 16 -14 -4 -40 -23 -29 -20
-33 10 -17 21 11 41 63 34 88 -14 42 -29 62 -59 77 -18 8 -37 14 -42 14 -4 -1
-18 -4 -30 -6z"/>
<path d="M4335 3680 c-34 -22 -65 -74 -65 -108 0 -48 -33 -98 -129 -196 -107
-109 -132 -147 -130 -198 1 -31 2 -30 10 10 11 57 30 82 137 179 49 45 95 96
102 113 15 35 21 37 38 10 8 -13 23 -20 43 -20 l30 0 -30 37 c-46 56 -41 103
17 166 30 32 20 35 -23 7z"/>
<path d="M230 3673 c0 -19 21 -27 31 -12 8 12 11 12 19 -1 8 -13 10 -12 10 3
0 19 -25 23 -36 6 -4 -8 -9 -7 -15 2 -6 10 -9 10 -9 2z"/>
<path d="M6120 3655 c-6 -8 -10 -20 -7 -27 4 -8 6 -7 6 5 1 21 21 23 21 2 0
-20 19 -19 27 1 3 9 0 20 -8 25 -19 12 -25 11 -39 -6z"/>
<path d="M1941 3624 c-58 -48 -64 -144 -9 -144 20 0 20 1 3 20 -15 17 -16 24
-5 49 24 58 67 79 104 50 29 -23 33 -58 14 -120 -13 -43 -6 -58 17 -39 27 22
40 85 26 129 -23 77 -93 103 -150 55z"/>
<path d="M248 3628 c30 -15 28 -26 -5 -31 -26 -4 -26 -4 5 -6 25 -1 32 3 32
18 0 18 -19 32 -43 30 -7 0 -2 -5 11 -11z"/>
<path d="M4467 3572 c-36 -37 -34 -44 8 -26 19 7 46 14 60 14 39 0 29 34 -10
38 -23 2 -37 -4 -58 -26z"/>
<path d="M2261 3568 c-169 -83 -290 -374 -221 -527 11 -24 22 -42 25 -39 2 2
-1 32 -7 67 -29 155 56 349 194 440 33 23 64 41 68 41 16 0 21 -54 9 -109 -15
-74 -65 -181 -133 -286 -31 -47 -52 -85 -47 -85 15 0 117 114 146 163 74 127
107 295 65 337 -26 26 -45 25 -99 -2z"/>
<path d="M6138 3573 c12 -2 32 -2 45 0 12 2 2 4 -23 4 -25 0 -35 -2 -22 -4z"/>
<path d="M233 3563 c9 -2 23 -2 30 0 6 3 -1 5 -18 5 -16 0 -22 -2 -12 -5z"/>
<path d="M3333 3550 c-62 -24 -75 -147 -21 -198 40 -37 73 -38 108 -4 33 34
38 62 14 86 -23 24 -37 19 -20 -6 21 -29 4 -58 -33 -58 -62 0 -83 82 -35 140
29 34 23 53 -13 40z"/>
<path d="M210 3540 c14 -4 34 -8 45 -8 l20 -1 -20 9 c-11 5 -31 8 -45 8 l-25
0 25 -8z"/>
<path d="M6135 3520 c-3 -5 2 -9 12 -7 27 3 28 -17 1 -25 -19 -6 -18 -7 7 -5
19 1 30 7 30 17 0 8 7 18 15 22 9 4 0 7 -22 7 -20 1 -40 -3 -43 -9z"/>
<path d="M214 3505 c-4 -9 -4 -19 0 -22 3 -4 6 2 7 13 0 16 2 15 10 -4 10 -27
34 -24 34 4 0 24 -42 32 -51 9z m46 -16 c0 -5 -4 -9 -10 -9 -5 0 -10 7 -10 16
0 8 5 12 10 9 6 -3 10 -10 10 -16z"/>
<path d="M731 3470 c-137 -28 -248 -55 -253 -62 -4 -7 -8 -34 -8 -59 l0 -46
248 -85 247 -85 6 26 c14 56 12 58 -56 76 l-65 18 0 41 c0 23 3 57 6 78 6 34
9 36 53 43 80 11 81 12 81 61 0 24 -3 44 -7 43 -5 0 -118 -22 -252 -49z m68
-112 c-1 -18 -4 -45 -8 -59 l-6 -25 -118 35 c-64 19 -115 37 -112 40 7 6 181
39 218 40 24 1 27 -2 26 -31z"/>
<path d="M4570 3446 c0 -66 -35 -105 -140 -153 -130 -61 -161 -96 -205 -233
-28 -86 -53 -129 -88 -150 l-32 -20 30 0 c43 0 89 32 109 74 10 21 28 74 41
118 36 125 77 166 183 187 33 6 71 21 85 31 32 25 51 81 43 125 -8 41 -26 56
-26 21z"/>
<path d="M6136 3461 c-4 -5 -3 -17 0 -26 9 -22 48 -15 52 10 2 15 1 16 -6 7
-7 -11 -10 -11 -15 2 -7 18 -23 21 -31 7z m24 -21 c0 -5 -2 -10 -4 -10 -3 0
-8 5 -11 10 -3 6 -1 10 4 10 6 0 11 -4 11 -10z"/>
<path d="M204 3449 c-9 -16 21 -43 40 -36 9 4 16 14 15 24 0 11 -3 13 -6 6 -6
-16 -43 -17 -43 -2 0 6 7 9 15 5 8 -3 15 -1 15 4 0 14 -27 13 -36 -1z"/>
<path d="M3013 3450 c-33 -14 -28 -20 15 -17 37 2 37 2 37 -37 1 -29 6 -43 23
-54 12 -8 22 -21 22 -29 0 -22 25 -9 28 15 2 13 -5 26 -17 34 -13 8 -21 23
-21 39 0 28 -27 59 -51 58 -8 0 -24 -4 -36 -9z"/>
<path d="M4360 3433 c-136 -47 -231 -179 -261 -363 -12 -69 -7 -98 12 -70 5 8
25 65 44 127 32 102 41 118 91 172 59 64 148 117 216 127 21 4 38 10 38 15 0
14 -91 9 -140 -8z"/>
<path d="M1777 3410 c-30 -24 -42 -66 -28 -103 12 -32 52 -53 78 -42 17 8 17
8 -2 13 -33 7 -45 23 -45 57 0 54 51 82 92 51 30 -22 37 -57 22 -106 -28 -93
-10 -170 41 -170 33 0 40 17 10 24 -35 9 -41 46 -21 131 19 81 13 110 -30 144
-34 27 -84 27 -117 1z"/>
<path d="M200 3396 c0 -12 9 -16 33 -15 21 1 25 3 12 6 -11 3 -26 10 -32 15
-10 8 -13 6 -13 -6z"/>
<path d="M6154 3396 c-18 -14 -18 -15 10 -26 16 -6 31 -8 34 -5 4 3 -4 8 -16
12 -21 5 -21 6 -5 19 10 7 13 14 7 14 -5 0 -19 -6 -30 -14z"/>
<path d="M2926 3384 c-25 -65 17 -104 112 -104 56 0 63 2 52 15 -7 8 -26 15
-42 15 -16 0 -44 7 -63 14 -29 13 -35 20 -35 45 0 33 -14 41 -24 15z"/>
<path d="M3491 3333 c-43 -42 -57 -78 -47 -118 23 -89 166 -86 166 4 0 28 -29
61 -54 61 -6 0 0 -7 12 -16 40 -28 22 -74 -28 -74 -15 0 -35 9 -45 20 -21 24
-15 59 22 113 36 52 21 58 -26 10z"/>
<path d="M215 3353 c35 -9 41 -23 10 -24 -19 -1 -23 -3 -12 -6 27 -7 48 4 41
22 -4 9 -17 15 -33 14 -20 -1 -22 -2 -6 -6z"/>
<path d="M6143 3335 c-3 -9 -3 -19 1 -22 3 -4 6 1 6 10 0 24 18 21 22 -3 2
-14 7 -17 17 -11 8 5 11 16 8 25 -8 20 -46 21 -54 1z"/>
<path d="M3248 3313 c-65 -74 -62 -167 8 -222 35 -28 97 -28 124 -1 24 24 26
63 4 84 -21 22 -25 20 -18 -9 8 -33 -11 -55 -47 -55 -34 0 -69 31 -69 60 0 11
14 48 30 81 17 33 28 64 25 69 -10 16 -41 12 -57 -7z"/>
<path d="M195 3286 l-30 -14 37 -16 c48 -21 51 -20 36 4 -11 17 -10 22 2 30
24 15 -8 12 -45 -4z m25 -16 c0 -5 -2 -10 -4 -10 -3 0 -8 5 -11 10 -3 6 -1 10
4 10 6 0 11 -4 11 -10z"/>
<path d="M2485 3264 c-45 -23 -185 -128 -185 -139 0 -3 54 22 121 55 117 58
183 80 197 66 13 -13 -51 -117 -99 -160 -54 -49 -153 -103 -249 -136 -88 -31
-99 -44 -30 -35 142 18 295 93 356 172 54 70 72 173 35 193 -33 17 -94 11
-146 -16z"/>
<path d="M3697 3248 c-49 -66 -42 -144 15 -174 56 -29 108 0 108 60 0 22 -31
56 -52 56 -17 0 -7 -18 12 -23 24 -6 26 -30 4 -51 -21 -21 -47 -20 -67 2 -27
29 -21 77 13 115 35 41 37 47 11 47 -11 0 -31 -15 -44 -32z"/>
<path d="M2705 3250 c-24 -26 -17 -119 12 -158 38 -51 127 -55 139 -6 9 34
-12 56 -30 32 -14 -19 -43 -23 -62 -10 -26 17 -46 76 -41 119 2 23 4 43 2 43
-1 0 -10 -9 -20 -20z"/>
<path d="M6168 3263 c12 -2 32 -2 45 0 12 2 2 4 -23 4 -25 0 -35 -2 -22 -4z"/>
<path d="M4537 3219 c-8 -62 -42 -91 -112 -97 -63 -5 -69 -22 -12 -36 53 -14
113 7 137 47 23 37 26 99 6 116 -11 9 -14 3 -19 -30z"/>
<path d="M178 3233 c7 -3 16 -2 19 1 4 3 -2 6 -13 5 -11 0 -14 -3 -6 -6z"/>
<path d="M5440 3195 l0 -44 60 -17 60 -17 0 -66 c0 -36 -4 -71 -8 -78 -5 -8
-101 -33 -129 -33 -2 0 -3 -21 -3 -46 0 -43 2 -46 23 -41 12 3 121 24 242 47
121 22 228 43 238 46 14 4 17 17 17 63 l0 57 -62 21 c-35 11 -147 50 -250 86
l-188 66 0 -44z m304 -136 c56 -16 108 -33 116 -36 8 -3 -41 -16 -110 -28 -69
-12 -128 -19 -132 -16 -10 9 3 111 15 111 5 0 55 -14 111 -31z"/>
<path d="M6147 3233 c-4 -3 -7 -13 -7 -22 0 -12 3 -11 13 4 13 17 14 17 20 -5
7 -26 27 -18 27 11 0 13 -7 19 -23 19 -13 0 -27 -3 -30 -7z"/>
<path d="M6146 3181 c-11 -18 6 -41 30 -41 13 0 24 5 24 11 0 5 -4 8 -9 5 -5
-3 -11 3 -14 14 -5 21 -22 27 -31 11z m24 -21 c0 -5 -2 -10 -4 -10 -3 0 -8 5
-11 10 -3 6 -1 10 4 10 6 0 11 -4 11 -10z"/>
<path d="M193 3152 c-6 -4 6 -7 27 -7 21 0 33 3 27 7 -7 4 -19 8 -27 8 -8 0
-20 -4 -27 -8z"/>
<path d="M221 3113 c-9 -16 -12 -16 -21 -3 -6 9 -10 10 -10 3 0 -18 20 -27 33
-14 15 15 30 14 21 -1 -4 -7 -3 -8 5 -4 9 6 9 11 0 22 -15 18 -16 18 -28 -3z"/>
<path d="M6150 3120 c0 -4 11 -10 25 -12 14 -3 25 -2 25 2 0 4 -11 10 -25 12
-14 3 -25 2 -25 -2z"/>
<path d="M3583 3098 c-32 -36 -43 -63 -43 -108 0 -52 42 -100 87 -100 56 0 96
75 63 115 -14 17 -60 21 -60 5 0 -5 9 -10 20 -10 14 0 20 -7 20 -23 0 -48 -56
-65 -84 -25 -27 38 -20 92 15 133 34 39 17 51 -18 13z"/>
<path d="M3877 3090 c-37 -29 -71 -104 -62 -138 16 -64 75 -83 120 -37 29 28
32 57 8 76 -16 13 -17 12 -4 -4 12 -15 11 -20 -4 -37 -24 -26 -61 -26 -75 1
-15 28 -4 70 31 118 32 45 26 53 -14 21z"/>
<path d="M3403 3068 c-73 -81 -51 -182 43 -195 51 -7 77 15 72 61 -2 25 -8 31
-28 33 -25 3 -25 3 -2 -7 28 -12 28 -16 -3 -36 -23 -15 -27 -15 -50 0 -36 24
-34 75 5 119 17 19 30 37 30 41 0 15 -49 4 -67 -16z"/>
<path d="M6145 3080 c3 -5 15 -10 26 -10 29 0 23 -18 -8 -23 -26 -4 -26 -4 5
-6 25 -1 32 3 32 18 0 19 -18 31 -46 31 -9 0 -12 -4 -9 -10z"/>
<path d="M200 3069 c0 -6 6 -9 13 -6 8 3 20 1 28 -3 11 -8 11 -10 -1 -14 -8
-2 -22 -7 -30 -9 -8 -3 -3 -6 12 -6 30 -1 41 10 32 33 -7 18 -54 22 -54 5z"/>
<path d="M2906 3061 c-3 -4 0 -22 6 -39 16 -40 -3 -66 -44 -60 -36 6 -46 -7
-18 -22 42 -22 104 9 111 55 6 37 -10 75 -31 75 -10 0 -21 -4 -24 -9z"/>
<path d="M4475 3051 c-3 -6 15 -33 40 -61 37 -42 45 -58 45 -90 0 -40 -20 -70
-47 -70 -8 0 -13 -6 -10 -12 2 -7 19 -13 38 -13 29 0 37 5 53 35 25 47 16 98
-26 145 -40 46 -85 78 -93 66z"/>
<path d="M2715 3039 c-4 -6 1 -16 10 -23 23 -17 15 -47 -17 -65 -25 -14 -29
-14 -55 5 -16 12 -29 33 -31 48 -3 22 -6 25 -18 15 -42 -35 13 -129 76 -129
61 0 109 43 110 96 0 46 -55 86 -75 53z"/>
<path d="M3176 3016 c-32 -29 -36 -39 -36 -83 0 -42 5 -54 30 -78 37 -36 116
-46 155 -21 30 20 34 65 7 89 -25 23 -39 21 -18 -2 33 -37 -6 -69 -70 -56 -65
12 -82 82 -34 142 41 52 18 58 -34 9z"/>
<path d="M1789 3011 c-25 -25 -29 -37 -29 -83 0 -128 109 -258 215 -258 31 0
45 8 81 44 69 68 54 95 -17 31 -73 -65 -155 -36 -197 69 -33 83 -38 121 -18
151 9 14 23 25 31 25 25 0 184 -81 238 -121 66 -50 77 -49 37 0 -43 55 -77 82
-164 130 -93 51 -135 54 -177 12z"/>
<path d="M4344 2999 c-15 -17 -19 -36 -19 -101 0 -72 2 -82 24 -99 31 -25 85
-25 111 1 23 23 26 76 6 103 -20 26 -26 21 -19 -15 6 -31 -13 -58 -43 -58 -41
0 -65 94 -40 154 17 40 9 46 -20 15z"/>
<path d="M6141 2998 c1 -17 2 -19 6 -5 5 18 43 24 43 7 0 -5 -7 -10 -16 -10
-8 0 -12 -5 -8 -11 4 -7 11 -6 21 4 20 19 9 37 -23 37 -19 0 -24 -5 -23 -22z"/>
<path d="M213 3003 c9 -2 25 -2 35 0 9 3 1 5 -18 5 -19 0 -27 -2 -17 -5z"/>
<path d="M215 2980 l-40 -7 43 -2 c23 0 42 4 42 9 0 6 -1 9 -2 9 -2 -1 -21 -5
-43 -9z"/>
<path d="M948 2973 c-21 -5 -21 -6 -4 -101 10 -54 10 -75 2 -78 -13 -4 -136
-24 -152 -24 -6 0 -16 30 -22 66 -6 37 -13 69 -16 71 -3 3 -16 3 -29 -1 -23
-5 -24 -8 -15 -63 13 -85 12 -86 -67 -99 -39 -7 -73 -9 -77 -6 -3 4 -11 41
-17 82 -7 41 -13 75 -14 76 -1 1 -14 0 -29 -3 -22 -4 -27 -10 -23 -27 2 -11
12 -69 21 -129 14 -89 20 -107 33 -103 9 3 122 21 251 42 129 20 236 38 237
39 7 5 -44 259 -52 260 -5 2 -18 1 -27 -2z"/>
<path d="M4003 2954 c-9 -14 -18 -49 -21 -77 -3 -46 -1 -55 22 -76 50 -47 136
-21 136 40 0 29 -38 24 -50 -6 -11 -30 -40 -33 -65 -5 -21 23 -16 91 9 119 15
17 13 31 -5 31 -5 0 -16 -12 -26 -26z"/>
<path d="M211 2946 c-9 -11 -9 -16 0 -22 8 -4 9 -3 5 4 -4 7 -3 12 2 12 6 0
12 -7 16 -15 6 -17 26 -20 26 -4 0 5 -4 7 -10 4 -5 -3 -10 1 -10 10 0 9 5 13
10 10 6 -3 10 -1 10 4 0 16 -36 13 -49 -3z"/>
<path d="M6136 2951 c-14 -22 7 -41 43 -40 20 0 30 3 24 6 -7 2 -13 13 -13 24
0 13 -7 19 -24 19 -14 0 -27 -4 -30 -9z m44 -17 c0 -9 -7 -14 -17 -12 -25 5
-28 28 -4 28 12 0 21 -6 21 -16z"/>
<path d="M2526 2921 c5 -5 18 -11 28 -13 10 -1 24 -11 30 -20 14 -24 -21 -70
-62 -82 -38 -11 -90 16 -111 58 -16 33 -37 21 -27 -17 16 -67 94 -109 161 -87
42 14 85 63 85 96 0 36 -42 74 -82 74 -19 0 -28 -4 -22 -9z"/>
<path d="M2780 2911 c0 -12 7 -21 15 -21 18 0 20 -41 5 -71 -13 -23 -62 -26
-84 -4 -8 8 -17 15 -20 15 -14 0 -5 -31 14 -50 65 -65 179 31 138 117 -17 36
-68 46 -68 14z"/>
<path d="M217 2893 c-12 -12 -7 -31 9 -37 20 -8 44 11 43 33 -1 13 -2 13 -6
-1 -5 -22 -23 -24 -23 -3 0 16 -12 20 -23 8z"/>
<path d="M1910 2875 c-28 -34 22 -95 79 -95 37 0 32 19 -8 30 -42 11 -58 32
-36 50 15 13 66 -5 117 -41 19 -14 29 -17 26 -9 -2 8 -26 29 -52 47 -52 36
-105 43 -126 18z"/>
<path d="M6126 2862 c-2 -4 11 -8 30 -8 19 0 34 4 34 8 0 4 -13 8 -29 8 -17 0
-32 -4 -35 -8z"/>
<path d="M3586 2844 c-60 -59 -2 -164 90 -164 34 0 47 5 63 26 25 32 27 61 5
92 -15 22 -67 31 -78 13 -3 -4 6 -6 21 -3 47 9 64 -44 25 -75 -25 -20 -61 -15
-89 13 -22 22 -25 31 -19 70 6 49 5 51 -18 28z"/>
<path d="M3824 2836 c-30 -22 -27 -106 5 -140 51 -54 141 -20 141 54 0 32 -31
63 -57 58 -26 -5 -22 -32 5 -36 27 -4 28 -26 2 -52 -24 -24 -29 -24 -57 -5
-29 20 -36 58 -19 100 16 38 11 43 -20 21z"/>
<path d="M220 2829 c0 -5 11 -9 25 -9 14 0 25 2 25 4 0 2 -11 6 -25 8 -14 3
-25 1 -25 -3z"/>
<path d="M4200 2825 c0 -8 13 -21 30 -30 35 -18 50 -43 50 -84 0 -44 -19 -78
-51 -91 -31 -13 -30 -30 2 -30 28 0 67 45 79 92 20 73 -24 158 -82 158 -18 0
-28 -5 -28 -15z"/>
<path d="M6124 2825 c-9 -23 3 -45 26 -45 25 0 37 25 20 45 -16 19 -39 19 -46
0z m42 -6 c10 -17 -13 -36 -27 -22 -12 12 -4 33 11 33 5 0 12 -5 16 -11z"/>
<path d="M2221 2816 c-21 -25 -19 -75 5 -122 44 -85 147 -113 205 -55 38 39
38 72 -2 106 -38 32 -45 28 -22 -13 17 -30 17 -32 -2 -51 -31 -29 -57 -33 -92
-11 -43 26 -66 64 -73 118 -5 41 -6 44 -19 28z"/>
<path d="M3406 2807 c-38 -56 -1 -147 59 -147 49 0 87 61 59 96 -8 10 -13 13
-9 6 18 -36 -26 -73 -64 -52 -16 8 -21 22 -23 68 l-3 57 -19 -28z"/>
<path d="M240 2800 l-25 -8 28 -1 c32 -1 36 -16 5 -24 -12 -4 -19 -9 -16 -13
15 -14 48 8 48 32 0 26 -2 26 -40 14z"/>
<path d="M2618 2789 c-31 -17 -22 -47 13 -51 59 -6 55 -81 -4 -103 -36 -12
-81 11 -85 43 -2 12 -8 20 -13 17 -17 -11 -9 -46 16 -70 36 -37 97 -35 136 4
24 25 29 38 29 80 0 42 -4 53 -26 70 -30 23 -41 25 -66 10z"/>
<path d="M4515 2748 c9 -35 -41 -88 -83 -88 -41 0 -62 9 -62 27 0 8 -4 11 -10
8 -34 -21 14 -85 64 -85 74 0 148 111 100 151 -13 11 -14 9 -9 -13z"/>
<path d="M4034 2745 c-4 -8 -1 -22 6 -30 33 -40 -25 -99 -76 -76 -22 10 -25 9
-22 -6 2 -10 14 -23 27 -30 58 -28 131 46 117 120 -5 28 -12 37 -27 37 -11 0
-22 -7 -25 -15z"/>
<path d="M4155 2750 c-4 -7 -2 -17 4 -23 32 -32 -4 -103 -54 -109 -29 -3 -29
-3 -8 -16 69 -39 153 101 86 145 -15 10 -23 11 -28 3z"/>
<path d="M240 2729 c-32 -20 -33 -23 -15 -30 11 -4 31 -8 45 -8 20 -1 22 1 10
9 -12 8 -13 13 -2 30 16 26 6 25 -38 -1z m20 -19 c0 -5 -4 -10 -10 -10 -5 0
-10 5 -10 10 0 6 5 10 10 10 6 0 10 -4 10 -10z"/>
<path d="M2112 2718 c-16 -46 -18 -121 -7 -313 12 -218 0 -246 -145 -345 -90
-62 -114 -88 -126 -134 -9 -36 6 -33 47 10 18 20 66 54 104 76 86 51 137 102
153 155 21 70 25 155 12 248 -7 50 -15 146 -19 215 -6 119 -7 123 -19 88z"/>
<path d="M6110 2731 c0 -24 39 -39 51 -20 5 8 8 19 8 24 0 6 -3 4 -6 -2 -6
-16 -43 -17 -43 -2 0 5 5 7 10 4 6 -3 10 -1 10 4 0 6 -7 11 -15 11 -8 0 -15
-9 -15 -19z"/>
<path d="M6089 2687 c12 -12 73 -18 66 -7 -3 4 -21 10 -40 12 -22 2 -31 0 -26
-5z"/>
<path d="M3754 2664 c-26 -39 -22 -83 10 -111 41 -35 100 -26 131 20 13 20 14
29 4 51 -12 26 -42 35 -55 15 -3 -6 -1 -16 5 -22 16 -16 14 -25 -10 -37 -16
-9 -26 -8 -46 5 -22 15 -25 22 -20 61 2 24 3 44 1 44 -2 0 -11 -12 -20 -26z"/>
<path d="M5340 2556 c-18 -63 -30 -119 -26 -124 3 -5 15 -12 25 -15 20 -5 30
16 56 126 4 15 10 27 14 27 4 0 101 -27 215 -61 115 -33 212 -57 216 -52 12
14 29 72 22 77 -12 7 -465 136 -477 136 -7 0 -27 -51 -45 -114z"/>
<path d="M6100 2649 c0 -15 35 -19 48 -6 11 12 9 14 -17 13 -17 -1 -31 -4 -31
-7z"/>
<path d="M221 2642 c-1 -18 20 -23 54 -12 30 10 30 10 -7 7 -21 -2 -40 2 -42
8 -2 5 -5 4 -5 -3z"/>
<path d="M6077 2624 c7 -3 10 -11 7 -18 -7 -17 22 -40 41 -32 23 9 18 43 -7
50 -27 7 -59 7 -41 0z m53 -30 c0 -9 -7 -14 -17 -12 -25 5 -28 28 -4 28 12 0
21 -6 21 -16z"/>
<path d="M267 2613 c-13 -13 -7 -25 7 -14 10 8 16 9 21 1 9 -15 -5 -32 -22
-26 -8 3 -11 1 -8 -4 17 -28 60 3 44 32 -10 18 -30 24 -42 11z"/>
<path d="M2217 2470 c18 -322 7 -373 -107 -511 -89 -107 -120 -158 -126 -206
l-4 -38 16 44 c11 30 52 81 129 161 144 151 160 183 159 310 0 76 -8 123 -37
235 l-37 140 7 -135z"/>
<path d="M4463 2593 c-21 -8 -15 -21 15 -35 55 -27 29 -142 -35 -150 -38 -4
-35 -22 5 -26 78 -8 143 139 83 191 -19 18 -51 27 -68 20z"/>
<path d="M4310 2569 c0 -6 10 -19 22 -28 16 -13 21 -29 22 -65 1 -41 -3 -51
-27 -72 -20 -17 -35 -23 -49 -18 -15 4 -19 2 -16 -7 7 -21 56 -23 84 -4 55 36
68 141 23 186 -21 21 -59 26 -59 8z"/>
<path d="M3944 2546 c-11 -28 6 -65 36 -81 41 -21 75 -19 106 8 22 19 26 29
20 50 -8 34 -19 34 -34 2 -9 -20 -19 -25 -46 -25 -34 0 -59 18 -54 40 4 19
-21 24 -28 6z"/>
<path d="M6090 2553 c8 -3 21 -12 28 -21 11 -14 12 -14 12 0 0 16 -21 29 -43
27 -7 0 -5 -3 3 -6z"/>
<path d="M986 2440 c-42 -55 -79 -100 -82 -100 -3 0 -17 9 -31 20 -17 13 -41
20 -70 20 -100 0 -157 -56 -150 -145 4 -53 63 -204 82 -211 9 -4 450 169 463
181 5 5 -18 74 -26 79 -4 2 -101 -34 -216 -80 -114 -47 -210 -83 -213 -81 -14
14 -29 95 -22 114 10 28 48 52 93 60 31 5 40 1 72 -31 30 -30 39 -35 50 -24
35 36 164 204 164 214 0 13 -28 84 -34 84 -1 0 -38 -45 -80 -100z"/>
<path d="M2320 2514 c0 -50 29 -226 50 -303 42 -151 80 -215 205 -341 79 -80
120 -131 134 -163 23 -54 41 -54 41 0 0 65 -35 118 -120 183 -137 105 -188
197 -255 467 -44 177 -55 209 -55 157z"/>
<path d="M4212 2505 c1 -25 -5 -42 -22 -61 -21 -22 -31 -25 -62 -20 -21 4 -38
3 -38 -2 0 -19 26 -32 63 -32 71 0 137 96 95 138 -23 23 -39 14 -36 -23z"/>
<path d="M270 2520 c0 -17 27 -23 47 -11 17 11 17 11 -2 9 -11 -1 -26 1 -32 5
-8 5 -13 4 -13 -3z"/>
<path d="M6070 2515 c-7 -9 -10 -18 -6 -22 3 -3 6 -1 6 5 0 7 5 12 10 12 19 0
10 -38 -10 -43 -11 -3 -20 -11 -20 -17 0 -9 4 -9 13 -2 17 14 42 -1 32 -19 -6
-11 -5 -11 5 -2 10 9 10 15 1 26 -9 12 -8 16 4 21 21 8 19 33 -4 45 -14 8 -22
7 -31 -4z m37 -27 c-3 -8 -6 -5 -6 6 -1 11 2 17 5 13 3 -3 4 -12 1 -19z"/>
<path d="M284 2479 c-9 -16 21 -43 40 -36 9 4 16 17 15 29 0 22 -1 22 -9 3 -7
-18 -8 -19 -15 -2 -8 19 -21 22 -31 6z m26 -19 c0 -5 -2 -10 -4 -10 -3 0 -8 5
-11 10 -3 6 -1 10 4 10 6 0 11 -4 11 -10z"/>
<path d="M3056 2455 c13 -60 68 -180 116 -251 65 -97 162 -184 299 -269 127
-78 293 -197 421 -301 276 -225 337 -276 372 -313 l40 -41 -35 10 c-50 15
-136 12 -204 -5 -33 -9 -153 -61 -266 -116 -245 -118 -317 -139 -433 -120
-102 17 -191 63 -361 189 -224 166 -310 202 -449 187 -144 -16 -216 -12 -272
18 -63 32 -109 85 -123 143 -14 53 -14 168 -1 213 12 44 5 51 -23 23 -20 -21
-22 -32 -22 -130 1 -132 14 -181 68 -239 89 -97 211 -125 342 -80 66 22 74 23
129 10 95 -22 181 -75 306 -189 177 -162 316 -221 495 -211 110 6 180 31 356
126 156 84 235 117 322 131 85 13 192 -2 224 -32 22 -21 43 -17 43 8 0 52 -71
131 -247 274 l-92 75 -65 135 c-131 272 -162 438 -107 565 17 38 92 117 122
127 24 9 2 21 -25 14 -36 -9 -94 -62 -117 -109 -26 -49 -49 -156 -49 -225 0
-89 29 -201 78 -302 25 -52 48 -99 50 -104 3 -5 -33 20 -79 56 -46 36 -163
117 -260 181 -322 212 -421 308 -521 507 -21 42 -35 62 -32 45z"/>
<path d="M305 2424 c-22 -7 -33 -13 -24 -13 9 -1 19 -8 23 -16 7 -19 45 -20
52 -1 3 8 2 21 -3 29 -7 11 -15 11 -48 1z m45 -14 c0 -12 -28 -25 -36 -17 -9
9 6 27 22 27 8 0 14 -5 14 -10z"/>
<path d="M6050 2410 c8 -5 22 -9 30 -9 10 0 8 3 -5 9 -27 12 -43 12 -25 0z"/>
<path d="M6030 2371 c0 -10 7 -22 16 -25 18 -7 44 10 43 28 0 7 -2 6 -6 -1 -6
-16 -43 -17 -43 -2 0 5 5 7 10 4 6 -3 10 -1 10 4 0 6 -7 11 -15 11 -8 0 -15
-9 -15 -19z"/>
<path d="M331 2361 c-21 -13 -5 -50 20 -44 29 8 32 21 4 15 -32 -6 -33 15 -2
28 12 5 15 9 7 9 -8 0 -21 -3 -29 -8z"/>
<path d="M6014 2328 c-3 -4 6 -8 20 -8 14 0 26 -5 26 -11 0 -5 5 -7 10 -4 6 3
10 10 10 14 0 12 -60 20 -66 9z"/>
<path d="M350 2299 c-12 -8 -12 -10 5 -8 37 3 40 -1 15 -21 -27 -21 -15 -28
14 -7 11 8 15 19 10 30 -7 19 -22 21 -44 6z"/>
<path d="M6007 2294 c-4 -4 -7 -12 -7 -18 0 -6 4 -6 8 2 9 14 42 6 42 -10 0
-6 -7 -8 -15 -4 -8 3 -15 1 -15 -5 0 -6 8 -9 18 -7 24 5 22 42 -3 46 -12 2
-24 0 -28 -4z"/>
<path d="M364 2235 c-8 -21 2 -45 19 -45 8 0 20 7 27 15 10 12 10 18 0 30 -7
8 -19 15 -27 15 -7 0 -16 -7 -19 -15z m42 -6 c8 -14 -18 -31 -30 -19 -9 9 0
30 14 30 5 0 12 -5 16 -11z"/>
<path d="M5206 2214 c-9 -20 -16 -38 -14 -39 7 -6 386 -194 421 -208 l37 -16
20 40 21 40 -227 109 c-124 61 -229 110 -233 110 -4 0 -15 -16 -25 -36z"/>
<path d="M5977 2214 c-4 -4 -7 -12 -7 -18 0 -6 5 -5 12 2 18 18 27 15 38 -10
10 -23 10 -23 7 2 -2 25 -34 40 -50 24z"/>
<path d="M390 2168 c0 -21 -11 -23 -27 -7 -9 9 -10 7 -6 -10 6 -25 5 -25 48
-7 34 15 51 31 19 19 -9 -3 -20 0 -25 8 -7 11 -9 11 -9 -3z"/>
<path d="M5956 2161 c-11 -18 6 -41 31 -41 20 0 24 4 21 23 -3 23 -41 37 -52
18z m44 -17 c0 -9 -7 -14 -17 -12 -25 5 -28 28 -4 28 12 0 21 -6 21 -16z"/>
<path d="M443 2139 c-6 -6 -26 -15 -45 -19 l-33 -8 31 -1 c19 -1 38 7 49 19
19 21 17 28 -2 9z"/>
<path d="M5940 2111 c0 -5 9 -11 20 -14 11 -3 20 -11 20 -17 0 -8 -9 -10 -27
-5 -21 5 -25 4 -17 -5 16 -16 48 -9 52 11 1 9 -8 20 -23 27 -14 6 -25 8 -25 3z"/>
<path d="M2315 2076 c-11 -58 1 -169 23 -213 32 -61 79 -98 203 -157 86 -40
125 -65 148 -93 34 -41 40 -38 17 6 -21 41 -75 85 -142 116 -161 75 -201 123
-215 261 -11 105 -24 136 -34 80z"/>
<path d="M435 2071 c-16 -3 -25 -9 -19 -13 13 -9 54 1 54 13 0 5 -1 8 -2 8 -2
-1 -16 -4 -33 -8z"/>
<path d="M5917 2053 c-4 -3 -7 -13 -7 -21 0 -10 7 -12 26 -8 18 5 24 3 18 -5
-4 -8 -3 -9 4 -5 22 13 12 28 -14 23 -18 -3 -24 -1 -20 9 6 15 3 18 -7 7z"/>
<path d="M481 2031 c-1 -24 -1 -24 -15 -5 -11 14 -17 16 -26 7 -16 -15 -4 -33
21 -33 21 0 34 21 26 42 -3 7 -6 2 -6 -11z m-21 -11 c0 -5 -4 -10 -10 -10 -5
0 -10 5 -10 10 0 6 5 10 10 10 6 0 10 -4 10 -10z"/>
<path d="M2041 1989 c-75 -64 -97 -105 -89 -164 4 -28 6 -27 32 30 15 33 52
86 82 117 47 49 65 78 50 78 -3 0 -37 -27 -75 -61z"/>
<path d="M5890 1993 c-12 -15 -12 -16 0 -5 21 18 38 15 43 -10 5 -20 5 -20 4
2 -2 30 -29 38 -47 13z"/>
<path d="M486 1985 c-3 -9 -12 -12 -23 -9 -15 5 -15 4 -3 -5 13 -9 12 -12 -5
-25 -28 -21 -7 -19 35 4 24 13 29 19 16 20 -15 0 -16 3 -6 15 7 9 8 15 2 15
-5 0 -12 -7 -16 -15z"/>
<path d="M1219 1943 c-52 -27 -303 -205 -315 -224 -6 -10 26 -58 40 -59 4 0
72 47 150 104 201 147 226 157 271 111 32 -31 32 -75 1 -112 -13 -15 -90 -75
-170 -133 -80 -58 -145 -109 -146 -113 0 -13 40 -67 50 -67 4 0 80 54 168 119
216 161 235 199 162 314 -34 54 -82 87 -126 87 -17 0 -56 -12 -85 -27z"/>
<path d="M5880 1960 c0 -9 39 -25 46 -18 2 3 -7 10 -21 16 -14 6 -25 7 -25 2z"/>
<path d="M510 1930 c-8 -5 -18 -6 -22 -4 -4 3 -8 0 -8 -5 0 -6 6 -11 13 -11
16 0 43 18 36 24 -2 3 -11 1 -19 -4z"/>
<path d="M5860 1925 c-10 -12 -10 -18 0 -30 16 -19 39 -19 46 0 6 15 -11 45
-26 45 -4 0 -13 -7 -20 -15z m40 -21 c0 -16 -26 -19 -35 -4 -3 6 -4 14 0 20 8
13 35 1 35 -16z"/>
<path d="M5019 1907 c-56 -38 -94 -101 -94 -157 0 -67 29 -100 209 -239 l148
-114 24 29 c13 16 23 31 23 34 0 3 -63 52 -140 110 -163 122 -199 158 -199
201 0 34 38 79 67 79 32 0 84 -32 229 -143 78 -59 144 -107 147 -107 2 0 16
15 31 34 l26 34 -158 119 c-199 151 -243 168 -313 120z"/>
<path d="M510 1900 c-24 -15 -7 -19 20 -5 15 8 19 14 10 14 -8 1 -22 -3 -30
-9z"/>
<path d="M535 1870 c-5 -16 -12 -19 -27 -14 -14 4 -18 2 -14 -5 4 -6 15 -11
24 -11 15 0 15 -2 2 -10 -24 -15 2 -11 30 5 20 11 21 14 7 15 -15 0 -16 3 -7
20 7 12 7 20 1 20 -5 0 -13 -9 -16 -20z"/>
<path d="M5830 1869 c0 -5 4 -7 10 -4 5 3 20 1 32 -5 22 -11 22 -10 4 4 -23
18 -46 21 -46 5z"/>
<path d="M5834 1835 c11 -8 25 -15 30 -15 6 0 2 7 -8 15 -11 8 -25 15 -30 15
-6 0 -2 -7 8 -15z"/>
<path d="M5803 1815 c-8 -23 4 -30 29 -16 l23 12 -23 -5 c-17 -3 -22 -1 -18
10 3 8 3 14 0 14 -2 0 -7 -7 -11 -15z"/>
<path d="M605 1763 c0 -34 -32 -44 -52 -17 -14 19 -18 7 -4 -14 5 -8 21 -12
37 -10 22 2 30 9 32 27 2 13 0 27 -5 32 -5 5 -9 -3 -8 -18z"/>
<path d="M5765 1749 c-4 -6 -4 -13 -1 -16 3 -4 6 -1 6 5 0 7 5 12 11 12 6 0 8
-9 4 -20 -4 -14 -2 -20 9 -20 21 0 30 18 16 35 -15 18 -36 19 -45 4z m45 -19
c0 -5 -5 -10 -11 -10 -5 0 -7 5 -4 10 3 6 8 10 11 10 2 0 4 -4 4 -10z"/>
<path d="M640 1695 c-7 -9 -18 -14 -25 -11 -6 2 -12 -2 -12 -10 0 -8 3 -14 6
-14 13 1 55 39 50 45 -3 3 -12 -2 -19 -10z"/>
<path d="M5742 1694 c-9 -10 -10 -14 -1 -14 6 0 18 -8 26 -17 13 -16 14 -16 9
-1 -3 9 0 19 7 22 7 2 5 5 -5 5 -9 1 -18 5 -20 10 -1 5 -9 3 -16 -5z"/>
<path d="M670 1670 c0 -6 -12 -15 -26 -21 -15 -5 -24 -12 -20 -16 9 -10 56 18
56 34 0 7 -2 13 -5 13 -3 0 -5 -5 -5 -10z"/>
<path d="M5702 1652 c0 -15 5 -33 12 -41 9 -11 7 -13 -10 -7 -14 4 -26 1 -34
-9 -8 -9 -8 -15 -2 -15 6 0 14 5 18 11 4 8 9 7 16 -2 7 -11 11 -11 15 -1 2 6
11 12 18 12 12 0 25 21 25 39 0 4 -13 14 -29 24 l-28 17 -1 -28z m43 -22 c0
-22 -29 -18 -33 3 -3 14 1 18 15 15 10 -2 18 -10 18 -18z"/>
<path d="M661 1627 c-17 -21 -3 -49 23 -45 15 2 21 10 21 28 0 28 -26 38 -44
17z m32 -28 c-17 -17 -37 -1 -22 17 8 10 15 12 23 4 7 -7 7 -13 -1 -21z"/>
<path d="M1570 1513 c-28 -60 -79 -166 -113 -237 l-61 -129 43 -38 c24 -22 48
-36 55 -32 11 8 172 118 335 231 l93 65 -28 23 c-16 13 -33 23 -38 24 -4 0
-30 -16 -57 -36 l-49 -36 -55 44 c-30 23 -54 49 -55 56 0 7 11 35 25 63 28 55
28 59 -14 89 l-29 20 -52 -107z m84 -163 l46 -39 -99 -76 c-55 -41 -102 -75
-105 -75 -3 0 20 52 51 115 32 63 59 115 60 115 1 0 22 -18 47 -40z"/>
<path d="M723 1574 c2 -14 -4 -19 -20 -18 -12 0 -20 -3 -17 -8 3 -4 14 -8 25
-8 23 0 36 27 21 42 -7 7 -10 4 -9 -8z"/>
<path d="M5687 1573 c-11 -17 13 -28 26 -13 9 10 9 11 0 6 -6 -3 -13 -1 -15 6
-3 9 -6 9 -11 1z"/>
<path d="M5667 1536 c11 -15 21 -20 25 -13 4 6 -1 17 -10 24 -27 20 -34 15
-15 -11z"/>
<path d="M737 1533 c-4 -3 -7 -15 -7 -26 0 -13 -5 -17 -16 -13 -10 4 -14 1
-12 -6 8 -24 33 -13 36 15 4 30 11 33 32 15 12 -11 12 -10 1 5 -14 18 -24 21
-34 10z"/>
<path d="M4674 1526 c-18 -8 -50 -31 -73 -51 -70 -63 -79 -153 -22 -213 38
-41 95 -55 200 -47 72 5 92 3 121 -12 47 -24 54 -71 14 -102 -35 -28 -40 -27
-81 14 -34 34 -37 35 -59 20 -34 -22 -33 -76 2 -104 40 -32 92 -27 149 12 88
60 111 147 55 211 -42 47 -79 57 -203 54 -94 -3 -109 -1 -134 18 -39 29 -43
75 -9 109 33 33 66 32 101 -5 33 -35 46 -37 68 -12 57 63 -44 147 -129 108z"/>
<path d="M5644 1511 c21 -23 26 -26 26 -11 0 5 -10 15 -22 21 -23 12 -23 12
-4 -10z"/>
<path d="M5596 1484 c-5 -14 -4 -15 8 -5 17 14 36 7 35 -12 0 -9 -2 -8 -6 1
-2 6 -9 10 -14 6 -16 -10 -9 -24 12 -24 15 0 20 5 17 23 -4 27 -42 36 -52 11z"/>
<path d="M5580 1452 c0 -4 9 -13 20 -20 11 -7 20 -9 20 -4 0 4 -9 13 -20 20
-11 7 -20 9 -20 4z"/>
<path d="M5564 1415 c11 -8 27 -15 35 -15 9 0 3 7 -13 15 -36 19 -47 19 -22 0z"/>
<path d="M778 1393 c6 -2 9 -10 6 -15 -4 -7 -2 -8 5 -4 13 9 5 26 -12 25 -9 0
-8 -2 1 -6z"/>
<path d="M5526 1392 c-3 -5 5 -8 17 -8 16 1 22 -4 20 -18 -1 -12 2 -15 9 -8
15 15 2 42 -21 42 -11 0 -22 -4 -25 -8z"/>
<path d="M867 1373 c5 -15 3 -16 -8 -5 -19 18 -29 15 -29 -9 0 -30 44 -22 48
9 2 12 -1 22 -7 22 -6 0 -8 -8 -4 -17z"/>
<path d="M5495 1350 c-4 -6 1 -7 11 -3 13 5 15 2 9 -15 -4 -16 -2 -22 9 -22
19 0 28 14 20 34 -7 18 -39 22 -49 6z m45 -20 c0 -5 -5 -10 -11 -10 -5 0 -7 5
-4 10 3 6 8 10 11 10 2 0 4 -4 4 -10z"/>
<path d="M875 1330 c-18 -19 -18 -22 -2 -37 16 -16 18 -16 39 5 12 12 17 22
11 22 -7 0 -15 -4 -18 -10 -3 -5 -10 -10 -16 -10 -14 0 -11 28 4 33 6 2 9 7 6
11 -3 3 -14 -3 -24 -14z"/>
<path d="M914 1279 c-19 -22 -19 -22 3 -10 24 12 39 31 25 31 -5 0 -17 -10
-28 -21z"/>
<path d="M5442 1288 c-8 -8 -9 -15 -1 -25 13 -15 45 -17 54 -3 3 5 0 7 -9 4
-11 -4 -13 0 -9 15 6 23 -15 29 -35 9z m28 -8 c0 -5 -4 -10 -10 -10 -5 0 -10
5 -10 10 0 6 5 10 10 10 6 0 10 -4 10 -10z"/>
<path d="M935 1260 c-17 -19 -17 -21 8 -46 21 -21 29 -24 46 -14 12 6 21 16
21 22 0 6 -9 3 -19 -6 -13 -12 -21 -14 -26 -6 -4 6 1 18 11 25 11 8 14 15 7
15 -6 0 -15 -4 -18 -10 -3 -5 -10 -10 -16 -10 -14 0 -11 28 4 33 6 2 9 7 6 11
-3 3 -14 -3 -24 -14z"/>
<path d="M5410 1239 c0 -16 4 -19 21 -14 15 5 19 4 15 -4 -4 -6 -2 -11 3 -11
6 0 11 7 11 16 0 12 -6 15 -21 11 -15 -4 -19 -2 -15 9 3 8 1 14 -4 14 -6 0
-10 -9 -10 -21z"/>
<path d="M1944 1211 c13 -20 192 -125 311 -182 210 -101 463 -173 697 -198
125 -14 371 -14 496 0 314 34 643 148 909 313 107 66 135 95 42 43 -230 -128
-551 -233 -850 -278 -179 -26 -493 -29 -664 -6 -305 42 -634 147 -874 278 -40
23 -70 36 -67 30z"/>
<path d="M5371 1203 c0 -5 14 -19 32 -32 l32 -25 -29 32 c-31 33 -36 37 -35
25z"/>
<path d="M1023 1171 c-3 -11 -9 -18 -14 -15 -5 3 -9 0 -9 -5 0 -6 9 -11 21
-11 17 0 19 4 13 22 -6 21 -5 22 11 8 15 -13 18 -13 14 -1 -8 24 -30 25 -36 2z"/>
<path d="M5345 1150 c23 -25 11 -39 -18 -21 -22 14 -22 14 -3 -8 14 -15 23
-18 31 -11 7 6 21 7 31 4 14 -5 11 1 -10 24 -17 18 -34 32 -39 32 -6 0 -2 -9
8 -20z"/>
<path d="M1052 1138 c-15 -15 -16 -35 -2 -43 6 -3 7 1 4 10 -5 11 -2 14 9 9
24 -9 41 5 26 22 -14 17 -21 18 -37 2z m28 -8 c0 -5 -4 -10 -10 -10 -5 0 -10
5 -10 10 0 6 5 10 10 10 6 0 10 -4 10 -10z"/>
<path d="M5277 1108 c-6 -18 22 -48 39 -41 8 3 14 9 14 14 0 4 -6 6 -14 3 -11
-4 -13 0 -9 15 6 23 -22 31 -30 9z m23 -8 c0 -5 -5 -10 -11 -10 -5 0 -7 5 -4
10 3 6 8 10 11 10 2 0 4 -4 4 -10z"/>
<path d="M1090 1095 c-6 -8 -10 -19 -8 -24 1 -6 8 1 15 14 13 28 11 31 -7 10z"/>
<path d="M1105 1060 c-16 -17 -24 -30 -19 -30 13 0 59 48 52 55 -2 3 -17 -9
-33 -25z"/>
<path d="M5230 1064 c-11 -13 -8 -20 19 -47 28 -27 32 -29 27 -10 -4 12 -2 24
4 28 13 8 -6 45 -24 45 -8 0 -19 -7 -26 -16z m40 -28 c-13 -13 -35 7 -25 24 5
8 11 8 21 -1 10 -8 12 -15 4 -23z"/>
<path d="M1171 1048 c-1 -9 -8 -21 -17 -26 -9 -5 -15 -15 -12 -23 3 -9 10 -5
22 13 10 15 16 33 13 40 -4 8 -6 7 -6 -4z"/>
<path d="M1185 1010 c-10 -11 -16 -22 -13 -25 3 -3 13 4 23 15 10 11 16 22 13
25 -3 3 -13 -4 -23 -15z"/>
<path d="M1725 1019 c12 -19 212 -144 328 -204 748 -390 1680 -366 2404 63
163 97 191 124 53 53 -359 -186 -740 -294 -1120 -319 -174 -11 -474 2 -624 27
-334 55 -673 174 -949 333 -53 31 -95 52 -92 47z"/>
<path d="M5193 1002 c10 -10 17 -22 17 -25 0 -14 -29 -6 -40 11 -7 10 -10 11
-7 3 6 -25 33 -36 51 -21 15 12 15 14 0 31 -10 11 -22 19 -27 19 -6 0 -3 -8 6
-18z"/>
<path d="M1229 983 c-1 -5 -1 -12 0 -17 1 -5 -4 -13 -11 -17 -10 -7 -9 -9 5
-9 11 0 17 8 17 21 0 13 4 18 12 13 7 -4 8 -3 4 4 -8 13 -25 16 -27 5z"/>
<path d="M5113 954 c-3 -8 2 -23 11 -32 15 -15 17 -15 32 0 21 21 11 48 -16
48 -11 0 -23 -7 -27 -16z m42 -4 c11 -17 -5 -32 -21 -19 -8 6 -14 15 -14 20 0
12 27 11 35 -1z"/>
<path d="M1262 948 c-15 -15 -15 -35 0 -44 7 -4 8 -3 4 4 -5 8 0 12 13 12 14
0 21 6 20 18 0 10 -3 12 -6 5 -2 -7 -9 -13 -14 -13 -4 0 -6 7 -3 15 7 18 2 19
-14 3z"/>
<path d="M5088 914 c12 -8 20 -20 17 -25 -4 -5 1 -9 9 -9 9 0 16 4 16 8 0 13
-35 42 -51 42 -8 0 -4 -6 9 -16z"/>
<path d="M1325 900 c-3 -5 -3 -14 0 -20 3 -5 1 -10 -5 -10 -6 0 -8 -5 -5 -10
11 -18 26 1 19 22 -5 17 -3 20 10 15 10 -4 15 -3 11 3 -8 13 -22 13 -30 0z"/>
<path d="M5025 887 c-11 -9 -16 -20 -12 -31 8 -21 40 -33 45 -17 3 9 7 9 18 0
22 -18 16 3 -9 34 -20 24 -25 26 -42 14z m31 -18 c10 -17 -13 -36 -27 -22 -12
12 -4 33 11 33 5 0 12 -5 16 -11z"/>
<path d="M1370 861 c0 -5 -8 -11 -17 -13 -12 -2 -14 -6 -7 -10 6 -4 19 1 29
12 10 12 13 20 7 20 -7 0 -12 -4 -12 -9z"/>
<path d="M1409 848 c14 -18 7 -38 -12 -38 -8 0 -8 3 1 9 11 7 11 9 -2 14 -11
5 -16 1 -16 -13 0 -13 7 -20 20 -20 29 0 37 28 14 48 -17 16 -17 16 -5 0z"/>
<path d="M4966 841 c-4 -5 4 -7 16 -3 22 5 22 4 5 -15 -9 -11 -14 -23 -10 -26
3 -4 2 -7 -4 -7 -6 0 -14 7 -17 16 -4 9 -9 15 -11 12 -3 -2 4 -22 15 -43 16
-32 20 -35 20 -16 0 12 10 31 22 41 19 15 20 20 9 34 -15 18 -37 21 -45 7z
m44 -25 c0 -3 -4 -8 -10 -11 -5 -3 -10 -1 -10 4 0 6 5 11 10 11 6 0 10 -2 10
-4z"/>
<path d="M1434 793 c-5 -17 -3 -28 5 -31 9 -3 9 -7 0 -18 -6 -8 -8 -14 -4 -14
9 0 29 25 47 55 11 20 11 20 -11 1 -25 -23 -40 -13 -23 14 7 12 8 20 2 20 -5
0 -13 -12 -16 -27z"/>
<path d="M4894 785 c-9 -23 3 -45 26 -45 25 0 28 45 4 54 -22 8 -24 8 -30 -9z
m36 -21 c0 -8 -7 -14 -15 -14 -15 0 -21 21 -9 33 10 9 24 -2 24 -19z"/>
<path d="M1501 777 c-1 -10 -8 -20 -16 -23 -16 -6 -21 -34 -7 -34 13 0 35 46
29 62 -4 9 -6 7 -6 -5z"/>
<path d="M4865 755 c4 -11 8 -26 8 -32 0 -14 13 -17 20 -5 3 4 -4 18 -16 32
-16 20 -19 21 -12 5z"/>
<path d="M1520 745 c-16 -19 -6 -45 19 -45 23 0 35 28 20 46 -15 18 -24 18
-39 -1z m35 -16 c0 -7 -8 -15 -17 -17 -18 -3 -25 18 -11 32 10 10 28 1 28 -15z"/>
<path d="M4804 729 c-5 -9 -2 -10 11 -5 11 4 22 2 27 -6 11 -18 10 -28 -3 -28
-5 0 -7 5 -3 11 4 7 2 10 -5 8 -19 -7 -14 -24 7 -24 27 0 23 49 -5 53 -11 2
-25 -2 -29 -9z"/>
<path d="M1587 675 c-15 -19 -23 -35 -18 -35 11 0 55 59 49 65 -2 2 -16 -11
-31 -30z"/>
<path d="M1620 675 c-11 -13 -11 -19 3 -32 21 -21 49 -9 45 19 -4 28 -30 35
-48 13z m40 -9 c0 -18 -16 -29 -30 -21 -13 8 -1 35 16 35 8 0 14 -6 14 -14z"/>
<path d="M4740 684 c0 -11 34 -64 42 -64 4 0 -2 16 -13 35 -20 33 -29 42 -29
29z"/>
<path d="M4679 649 c-10 -6 -8 -9 10 -9 18 0 22 -4 18 -20 -3 -11 -1 -20 4
-20 14 0 10 47 -4 53 -8 3 -20 1 -28 -4z"/>
<path d="M1706 641 c-4 -5 -3 -17 1 -27 4 -12 3 -15 -5 -10 -7 4 -12 2 -12 -3
0 -6 7 -11 16 -11 12 0 15 6 10 26 -6 22 -4 25 9 20 9 -3 13 -2 10 4 -8 12
-22 13 -29 1z"/>
<path d="M4632 621 c-10 -6 -9 -13 7 -32 16 -20 22 -22 33 -11 11 11 10 12 -7
6 -16 -6 -18 -5 -7 7 26 28 7 51 -26 30z m28 -11 c0 -5 -4 -10 -10 -10 -5 0
-10 5 -10 10 0 6 5 10 10 10 6 0 10 -4 10 -10z"/>
<path d="M1764 611 c9 -14 -5 -42 -16 -35 -6 4 -5 10 3 15 11 7 10 9 -3 9 -22
0 -24 -26 -3 -34 19 -7 46 20 39 39 -4 8 -10 15 -16 15 -5 0 -7 -4 -4 -9z"/>
<path d="M4606 583 c7 -38 -8 -44 -24 -10 -8 16 -11 17 -11 6 -1 -22 23 -41
43 -33 19 7 19 12 1 44 l-15 25 6 -32z"/>
<path d="M1789 570 c-13 -10 -19 -19 -12 -20 6 0 15 6 19 12 6 9 10 5 14 -12
6 -24 7 -23 11 8 6 37 0 40 -32 12z"/>
<path d="M1840 550 c-6 -12 -9 -24 -7 -27 3 -2 11 5 17 17 6 12 9 24 7 27 -3
2 -11 -5 -17 -17z"/>
<path d="M1857 525 c-9 -19 -13 -35 -9 -35 5 0 16 16 25 35 9 19 13 35 9 35
-5 0 -16 -16 -25 -35z"/>
<path d="M4493 544 c-3 -8 2 -23 11 -32 14 -15 18 -15 31 -1 9 9 13 23 9 32
-8 21 -43 22 -51 1z m43 -5 c10 -17 -13 -36 -27 -22 -12 12 -4 33 11 33 5 0
12 -5 16 -11z"/>
<path d="M1924 518 c-16 -18 -21 -27 -12 -20 14 11 17 10 21 -10 l4 -23 2 24
c0 14 8 33 18 43 9 10 12 18 6 18 -5 0 -22 -14 -39 -32z"/>
<path d="M4470 522 c16 -34 1 -50 -21 -21 -21 27 -26 13 -6 -15 8 -11 19 -15
30 -10 21 8 22 24 1 50 -14 18 -15 18 -4 -4z"/>
<path d="M4373 475 c0 -27 2 -40 4 -27 4 20 7 21 21 10 16 -12 16 -11 1 7 -10
11 -19 29 -22 40 -2 11 -5 -2 -4 -30z"/>
<path d="M1957 475 c-9 -19 -13 -35 -9 -35 8 0 34 61 29 67 -2 1 -11 -13 -20
-32z"/>
<path d="M4417 475 c9 -19 18 -33 20 -32 5 6 -21 67 -29 67 -4 0 0 -16 9 -35z"/>
<path d="M1987 478 c-9 -31 -2 -33 11 -3 6 14 8 25 3 25 -5 0 -11 -10 -14 -22z"/>
<path d="M2014 476 c-8 -21 2 -46 18 -46 10 0 10 2 0 9 -10 6 -8 10 8 14 12 3
20 11 18 19 -7 19 -37 22 -44 4z m36 -6 c0 -5 -7 -10 -16 -10 -8 0 -12 5 -9
10 3 6 10 10 16 10 5 0 9 -4 9 -10z"/>
<path d="M2061 434 c-7 -19 -10 -38 -7 -41 3 -4 6 -1 6 5 0 7 11 12 25 12 29
0 44 25 26 43 -9 9 -11 8 -6 -5 5 -12 1 -20 -9 -24 -22 -8 -33 3 -18 18 14 14
16 28 4 28 -4 0 -14 -16 -21 -36z"/>
<path d="M4315 443 c8 -29 -11 -39 -25 -12 -7 11 -14 18 -17 16 -11 -12 19
-48 34 -42 9 3 20 0 25 -7 15 -25 8 16 -8 42 -13 22 -14 22 -9 3z"/>
<path d="M2169 427 c7 -9 11 -24 7 -32 -3 -8 -1 -15 5 -15 16 0 6 53 -11 58
-13 5 -13 3 -1 -11z"/>
<path d="M4167 417 c-23 -24 -18 -51 11 -55 28 -4 38 19 20 50 -13 24 -13 24
-31 5z m26 -22 c8 -18 -11 -31 -25 -17 -11 11 -3 32 12 32 4 0 10 -7 13 -15z"/>
<path d="M4220 425 c-11 -13 -11 -19 3 -32 21 -21 49 -9 45 19 -4 28 -30 35
-48 13z m36 -6 c3 -6 1 -16 -5 -22 -9 -9 -14 -8 -21 3 -9 15 -4 30 10 30 5 0
12 -5 16 -11z"/>
<path d="M2206 398 c-8 -30 -7 -38 2 -38 4 0 8 14 9 30 3 36 -2 39 -11 8z"/>
<path d="M2140 401 c0 -6 5 -13 12 -17 6 -4 8 -3 4 4 -3 5 0 13 6 15 8 3 6 6
-4 6 -10 1 -18 -3 -18 -8z"/>
<path d="M2246 391 c-13 -21 -25 -61 -17 -61 4 0 12 16 18 35 11 34 10 45 -1
26z"/>
<path d="M2274 382 c-1 -9 -4 -25 -9 -34 -4 -11 -3 -18 3 -18 13 0 25 51 15
61 -5 5 -9 1 -9 -9z"/>
<path d="M4100 389 c-13 -9 -12 -10 2 -5 22 6 34 -10 13 -18 -21 -8 -19 -26 4
-26 23 0 32 19 19 43 -10 20 -17 21 -38 6z"/>
<path d="M2323 354 c-3 -8 0 -21 7 -27 10 -9 11 -9 6 1 -4 7 -2 19 4 27 9 11
9 15 1 15 -6 0 -14 -7 -18 -16z"/>
<path d="M2364 362 c4 -7 2 -19 -4 -27 -9 -11 -9 -15 -1 -15 18 0 25 30 11 43
-10 9 -11 9 -6 -1z"/>
<path d="M4038 363 c6 -2 12 -16 12 -29 0 -13 5 -24 10 -24 12 0 12 2 0 34 -5
14 -15 26 -22 25 -10 0 -10 -2 0 -6z"/>
<path d="M2396 345 c4 -8 1 -22 -5 -29 -8 -10 -9 -16 -1 -21 5 -3 10 -5 11 -3
8 27 8 68 0 68 -6 0 -8 -7 -5 -15z"/>
<path d="M4011 338 c-1 -33 -17 -37 -26 -7 -4 11 -9 18 -12 16 -9 -10 19 -48
32 -43 7 2 16 -2 19 -11 4 -9 9 -14 11 -11 3 3 -1 22 -9 44 -13 36 -15 37 -15
12z"/>
<path d="M2428 331 c-9 -30 -3 -41 22 -41 17 0 38 35 27 47 -3 2 -8 -5 -12
-16 -9 -30 -23 -26 -27 7 l-3 27 -7 -24z"/>
<path d="M3945 338 c4 -11 2 -18 -4 -18 -6 0 -11 5 -11 10 0 6 -4 10 -10 10
-18 0 7 -45 26 -47 11 -2 13 0 6 3 -10 5 -10 9 -1 20 9 12 9 18 0 27 -10 9
-11 8 -6 -5z"/>
<path d="M2488 305 c-3 -14 -2 -25 2 -25 4 0 10 11 12 25 3 14 2 25 -2 25 -4
0 -10 -11 -12 -25z"/>
<path d="M3888 313 c5 -10 7 -24 4 -32 -2 -7 1 -12 8 -9 6 2 11 7 10 11 -8 35
-14 47 -22 47 -5 0 -5 -7 0 -17z"/>
<path d="M2542 293 c4 -38 42 -40 45 -3 3 25 3 25 -7 3 -13 -31 -34 -30 -28 2
3 14 1 25 -4 25 -5 0 -8 -12 -6 -27z"/>
<path d="M3831 305 c0 -11 4 -27 9 -35 9 -13 10 -13 9 0 0 8 -4 24 -9 35 l-9
20 0 -20z"/>
<path d="M2610 295 c-16 -19 -6 -45 19 -45 23 0 35 28 20 46 -15 18 -24 18
-39 -1z m30 -15 c0 -11 -7 -20 -15 -20 -15 0 -21 21 -8 33 12 13 23 7 23 -13z"/>
<path d="M3798 280 c2 -16 8 -30 13 -30 10 0 11 7 3 38 -9 33 -21 27 -16 -8z"/>
<path d="M2671 288 c0 -9 -4 -25 -7 -35 -5 -14 -4 -15 5 -7 7 7 11 22 8 35 -2
13 -5 16 -6 7z"/>
<path d="M3523 293 c-8 -2 -13 -22 -13 -45 0 -35 2 -39 23 -36 30 4 37 47 8
55 -11 3 -18 9 -15 14 3 5 10 6 16 3 7 -4 8 -2 4 4 -4 7 -8 12 -9 11 -1 0 -8
-3 -14 -6z m22 -51 c0 -18 -20 -15 -23 4 -3 10 1 15 10 12 7 -3 13 -10 13 -16z"/>
<path d="M3704 285 c-9 -23 3 -45 25 -45 11 0 22 -6 24 -12 8 -18 8 23 1 50
-7 25 -41 30 -50 7z m36 -15 c0 -11 -4 -20 -9 -20 -14 0 -23 18 -16 30 10 17
25 11 25 -10z"/>
<path d="M2702 278 c0 -7 -2 -20 -4 -28 -2 -8 1 -16 6 -18 5 -1 11 11 13 28 1
16 -1 30 -5 30 -5 0 -9 -6 -10 -12z"/>
<path d="M3673 275 c4 -9 2 -24 -4 -31 -9 -11 -8 -14 5 -14 19 0 22 45 4 56
-8 5 -9 2 -5 -11z"/>
<path d="M2730 255 c0 -14 5 -25 11 -25 5 0 8 4 5 9 -3 5 3 11 14 14 21 5 28
27 9 27 -5 0 -7 -4 -4 -10 3 -5 -1 -10 -10 -10 -9 0 -13 5 -10 10 3 6 1 10 -4
10 -6 0 -11 -11 -11 -25z"/>
<path d="M2792 250 c0 -19 2 -27 5 -17 2 9 2 25 0 35 -3 9 -5 1 -5 -18z"/>
<path d="M2828 268 c17 -17 15 -36 -5 -41 -14 -4 -13 -5 3 -6 28 -1 38 24 18
44 -9 8 -18 15 -22 15 -3 0 -1 -5 6 -12z"/>
<path d="M2987 262 c-34 -17 -34 -55 -1 -60 18 -3 22 4 27 34 4 21 5 39 4 39
-1 1 -15 -5 -30 -13z m13 -32 c0 -11 -7 -20 -15 -20 -15 0 -21 21 -8 33 12 13
23 7 23 -13z"/>
<path d="M3610 255 c0 -31 -13 -32 -28 -2 -6 13 -11 16 -11 7 -1 -25 16 -43
33 -37 14 6 24 57 11 57 -3 0 -5 -11 -5 -25z"/>
<path d="M3642 255 c0 -16 2 -22 5 -12 2 9 2 23 0 30 -3 6 -5 -1 -5 -18z"/>
<path d="M2883 264 c24 -7 21 -24 -4 -24 -12 0 -19 -5 -16 -12 2 -7 12 -13 23
-13 28 0 27 49 -1 52 -16 1 -16 1 -2 -3z"/>
<path d="M3070 260 c0 -5 -3 -9 -7 -9 -24 4 -33 -4 -33 -26 0 -20 5 -25 25
-25 22 0 25 4 25 35 0 19 -2 35 -5 35 -3 0 -5 -4 -5 -10z m0 -36 c0 -8 -7 -14
-15 -14 -15 0 -21 21 -9 33 10 9 24 -2 24 -19z"/>
<path d="M3464 255 c-3 -8 1 -22 10 -30 14 -15 16 -15 16 -1 0 9 -5 16 -11 16
-6 0 -9 7 -5 15 3 8 3 15 0 15 -2 0 -7 -7 -10 -15z"/>
<path d="M2933 235 c-9 -20 -8 -25 3 -25 8 0 14 10 14 25 0 31 -2 31 -17 0z"/>
<path d="M3410 235 c0 -31 -15 -33 -25 -2 l-8 22 -4 -22 c-2 -13 -8 -23 -13
-23 -5 0 -11 10 -13 23 -4 19 -4 18 -6 -5 -1 -26 2 -28 39 -28 38 0 40 2 40
30 0 17 -2 30 -5 30 -3 0 -5 -11 -5 -25z"/>
<path d="M3102 223 c2 -14 9 -28 16 -29 7 -1 8 0 2 3 -13 6 -13 43 1 43 5 0 7
-4 4 -10 -3 -5 -1 -10 4 -10 6 0 11 7 11 15 0 8 -9 15 -21 15 -16 0 -20 -5
-17 -27z"/>
<path d="M3193 243 c9 -2 17 -13 17 -24 0 -21 -16 -26 -23 -6 -4 9 -6 9 -6 0
-2 -20 20 -26 35 -11 20 19 7 48 -20 47 -16 -1 -17 -2 -3 -6z"/>
<path d="M3250 232 c0 -10 -6 -24 -12 -31 -11 -10 -10 -11 5 -6 15 6 26 55 12
55 -3 0 -5 -8 -5 -18z"/>
<path d="M3273 234 c-3 -8 2 -23 11 -32 15 -15 17 -15 32 0 21 21 11 48 -16
48 -11 0 -23 -7 -27 -16z m41 -2 c8 -13 -11 -35 -23 -28 -16 10 -14 36 3 36 8
0 17 -4 20 -8z"/>
</g>
</svg>
